<svg width="150" height="34" viewBox="0 0 150 34" fill="none" xmlns="http://www.w3.org/2000/svg">
<g clip-path="url(#clip0_3_16783)">
<path d="M54.2808 20.2476V0.709534H58.3882V7.78096C59.3761 7.57144 60.312 7.51906 61.1958 7.51906C63.7435 7.51906 65.6672 8.30477 67.0711 9.92858C68.4229 11.5 69.0988 13.8048 69.0988 16.7905C69.0988 18.4143 68.8908 19.881 68.5269 21.1381C68.1109 22.3952 67.643 23.3381 67.1231 24.0191C66.6031 24.6476 65.9272 25.1714 65.1473 25.5905C64.3674 26.0095 63.7435 26.2714 63.1716 26.3238C62.5997 26.4286 62.0277 26.481 61.5078 26.481C59.0641 26.481 57.2444 25.8524 56.1005 24.6476C54.9047 23.4429 54.2808 21.9762 54.2808 20.2476ZM58.4402 20.6667C58.4402 21.9762 59.4801 22.6572 61.5078 22.6572C62.8076 22.6572 63.7435 22.1857 64.2634 21.2429C64.7834 20.3 65.0433 18.7286 65.0433 16.5286C65.0433 14.4333 64.7314 13.0191 64.0555 12.181C63.3795 11.3429 62.3917 10.9238 61.1438 10.9238C60.156 10.9238 59.2721 11.0286 58.4922 11.2381V20.6667H58.4402Z" fill="#00AAFF"/>
<path d="M69.5669 7.78094H73.9343L77.7818 20.5619L81.5253 7.78094H85.6327L79.3416 26.6381C78.4057 29.3095 77.4178 31.0905 76.378 32.0333C75.2861 32.9762 74.1943 33.4476 73.0504 33.4476C72.2185 33.4476 71.3347 33.2905 70.4508 32.9238V29.2048C71.1267 29.519 71.7506 29.6762 72.3745 29.6762C73.5704 29.6762 74.6622 28.2095 75.6501 25.2238L69.5669 7.78094Z" fill="#00AAFF"/>
<path d="M87.8164 26.1667V9.50952C90.3121 8.14762 92.9117 7.51904 95.6674 7.51904C98.059 7.51904 99.9308 8.2 101.283 9.50952C102.634 10.8714 103.31 12.7048 103.31 15.1143V26.1667H99.2029V14.7476C99.2029 14.2762 99.1509 13.8571 99.0989 13.4905C98.9949 13.1762 98.8389 12.8095 98.579 12.4429C98.319 12.0762 97.9031 11.8143 97.3311 11.6571C96.7592 11.5 96.0313 11.3952 95.1474 11.3952C94.1596 11.3952 93.0677 11.5 91.9759 11.7095V26.1667H87.8164Z" fill="#00AAFF"/>
<path d="M105.806 16.7905C105.806 13.8048 106.482 11.5 107.833 9.92858C109.185 8.35715 111.161 7.51906 113.709 7.51906C114.644 7.51906 115.58 7.62382 116.568 7.78096V0.709534H120.676V20.2476C120.676 21.9238 120.104 23.3905 118.908 24.5952C117.712 25.8 115.892 26.4286 113.449 26.4286C112.877 26.4286 112.305 26.3762 111.733 26.2714C111.161 26.1667 110.537 25.9048 109.757 25.5381C109.029 25.1191 108.353 24.5952 107.781 23.9667C107.209 23.3381 106.742 22.3429 106.378 21.0857C106.014 19.881 105.806 18.4143 105.806 16.7905ZM109.913 16.5286C109.913 18.6762 110.173 20.2476 110.693 21.2429C111.213 22.1857 112.149 22.7095 113.449 22.7095C115.528 22.7095 116.568 22.0286 116.568 20.7191V11.2905C115.788 11.081 114.852 10.9762 113.865 10.9762C112.565 10.9762 111.629 11.3952 110.953 12.2333C110.277 13.0191 109.913 14.4857 109.913 16.5286Z" fill="#00AAFF"/>
<path d="M123.275 17.1572C123.275 14.2238 123.899 11.8667 125.095 10.0857C126.291 8.30477 128.267 7.46667 130.918 7.46667C133.414 7.46667 135.338 8.30477 136.586 10.0333C137.885 11.7619 138.509 13.8572 138.509 16.3714C138.509 17.4191 138.509 18.1524 138.457 18.6762H127.383C127.487 20.2476 127.955 21.3476 128.735 21.8714C129.515 22.3952 130.502 22.6572 131.75 22.6572C133.778 22.6572 135.702 22.1857 137.573 21.2429V24.8048C135.702 25.9048 133.518 26.481 131.126 26.481C130.346 26.481 129.671 26.4286 128.995 26.2714C128.319 26.1143 127.643 25.8524 126.915 25.4333C126.187 25.0143 125.563 24.4905 125.043 23.8095C124.523 23.181 124.107 22.2381 123.795 21.1381C123.431 19.9857 123.275 18.6762 123.275 17.1572ZM127.383 15.5857H134.246C134.142 14.3286 133.778 13.281 133.206 12.3905C132.634 11.5 131.802 11.081 130.814 11.081C129.775 11.081 128.995 11.4476 128.423 12.1286C127.851 12.8619 127.487 14.0143 127.383 15.5857Z" fill="#00AAFF"/>
<path d="M141.473 26.1667V9.40477C141.733 9.24763 142.149 9.09048 142.617 8.88096C143.085 8.67144 144.073 8.40953 145.581 8.04287C147.088 7.6762 148.544 7.46667 150 7.46667V11.2381C148.284 11.2381 146.828 11.4476 145.581 11.8667V26.1667H141.473Z" fill="#00AAFF"/>
<path d="M33.0676 0.5C29.948 0.5 27.1924 1.8619 25.2686 4.06191L11.4385 18.0476L7.487 14.0667C6.81109 13.281 6.44714 12.3381 6.44714 11.2381C6.44714 8.88095 8.31889 7.04762 10.6586 7.04762C11.6984 7.04762 12.6343 7.41429 13.4142 8.09524C13.6742 8.30476 14.3501 9.0381 14.3501 9.0381L18.7175 4.58571L17.4697 3.32857C15.5979 1.54762 13.1023 0.5 10.3466 0.5C4.62738 0.5 0 5.1619 0 10.9238C0 13.5429 0.987868 16.0048 2.54766 17.8381L11.4385 26.8476L30.052 8.09524C30.8319 7.41429 31.7678 7.04762 32.8076 7.04762C35.1473 7.04762 36.9671 8.93333 36.9671 11.2905C36.9671 12.3381 36.6031 13.281 35.9272 14.0667L23.6049 26.481C23.1369 27.0048 22.461 27.2667 21.7331 27.2667C21.0052 27.2667 20.3293 26.9524 19.8614 26.4286L18.9255 25.4857L14.5581 29.9381L15.4419 30.8286C17.0537 32.4524 19.2894 33.5 21.7331 33.5C24.1768 33.5 26.3605 32.5048 27.9723 30.8286L40.8666 17.7857C42.4263 16.0048 43.4142 13.5429 43.4142 10.8714C43.4662 5.1619 38.7868 0.5 33.0676 0.5Z" fill="#00AAFF"/>
</g>
<defs>
<clipPath id="clip0_3_16783">
<rect width="150" height="33" fill="white" transform="translate(0 0.5)"/>
</clipPath>
</defs>
</svg>
