<svg width="20" height="20" viewBox="0 0 20 20" fill="none" xmlns="http://www.w3.org/2000/svg">
<g clip-path="url(#clip0_617_16953)">
<path d="M15.785 4.41403C14.692 3.90262 13.5356 3.53924 12.3466 3.3335C12.1985 3.60127 12.0254 3.96143 11.9061 4.24795C10.624 4.05518 9.35379 4.05518 8.09533 4.24795C7.97606 3.96149 7.7991 3.60127 7.64962 3.3335C6.45938 3.53933 5.30207 3.90364 4.20854 4.4167C2.0325 7.70505 1.44259 10.9116 1.73751 14.0728C3.18081 15.1506 4.5795 15.8054 5.95464 16.2338C6.29639 15.7638 6.59849 15.2663 6.85783 14.7463C6.36409 14.5583 5.88812 14.3266 5.43556 14.0541C5.55465 13.9658 5.67094 13.8738 5.78426 13.7782C8.52658 15.0609 11.5063 15.0609 14.2159 13.7782C14.3297 13.8732 14.446 13.9652 14.5645 14.0541C14.1112 14.3274 13.6344 14.5595 13.1397 14.7476C13.4005 15.2698 13.702 15.7678 14.0429 16.2351C15.4193 15.8067 16.8193 15.152 18.2626 14.0728C18.6087 10.4082 17.6714 7.23102 15.785 4.41396V4.41403ZM7.23146 12.1287C6.40822 12.1287 5.73309 11.3602 5.73309 10.4243C5.73309 9.48844 6.39383 8.71859 7.23146 8.71859C8.06915 8.71859 8.74422 9.48708 8.72983 10.4243C8.73113 11.3602 8.06915 12.1287 7.23146 12.1287ZM12.7686 12.1287C11.9454 12.1287 11.2703 11.3602 11.2703 10.4243C11.2703 9.48844 11.931 8.71859 12.7686 8.71859C13.6063 8.71859 14.2814 9.48708 14.267 10.4243C14.267 11.3602 13.6063 12.1287 12.7686 12.1287Z" fill="#5865F2"/>
</g>
<defs>
<clipPath id="clip0_617_16953">
<rect width="16.6667" height="12.9557" fill="white" transform="translate(1.66669 3.3335)"/>
</clipPath>
</defs>
</svg>
