<svg width="12" height="12" viewBox="0 0 12 12" fill="none" xmlns="http://www.w3.org/2000/svg">
<g id="radix-icons:github-logo" clip-path="url(#clip0_230_79884)">
<path id="Vector" fill-rule="evenodd" clip-rule="evenodd" d="M5.8999 0.500064C4.49919 0.499001 3.14387 0.996696 2.07673 1.90399C1.00958 2.81128 0.300348 4.06889 0.0760737 5.45153C-0.148201 6.83416 0.127141 8.25148 0.852772 9.44957C1.5784 10.6477 2.70691 11.5483 4.03613 11.99C4.33131 12.0437 4.43865 11.8615 4.43865 11.7054C4.43865 11.5655 4.43377 11.1947 4.43052 10.7028C2.79119 11.0589 2.44478 9.91239 2.44478 9.91239C2.17644 9.23096 1.79019 9.05044 1.79019 9.05044C1.25513 8.68452 1.83084 8.69184 1.83084 8.69184C2.42283 8.73331 2.73345 9.29927 2.73345 9.29927C3.25957 10.2002 4.11338 9.94004 4.44922 9.78879C4.50289 9.40823 4.65576 9.14802 4.82327 9.00084C3.51409 8.85203 2.13822 8.34624 2.13822 6.08729C2.12971 5.50158 2.34726 4.93512 2.74565 4.50569C2.68466 4.35607 2.48219 3.75758 2.80257 2.94442C2.80257 2.94442 3.2986 2.78667 4.42401 3.54941C4.90509 3.41859 5.40135 3.35187 5.8999 3.351C6.39844 3.35194 6.89469 3.41865 7.37578 3.54941C8.5012 2.78667 8.9956 2.94524 8.9956 2.94524C9.31761 3.75677 9.11513 4.35607 9.05414 4.50569C9.43226 4.91796 9.65995 5.44326 9.65995 6.08729C9.65995 8.35194 8.28164 8.8504 6.96839 8.99596C7.17981 9.17811 7.36846 9.53834 7.36846 10.088C7.36846 10.8768 7.36115 11.5119 7.36115 11.7054C7.36115 11.8632 7.46767 12.0469 7.76691 11.9892C9.09586 11.5469 10.2239 10.6459 10.949 9.44757C11.6742 8.24926 11.9489 6.83193 11.7242 5.44945C11.4994 4.06698 10.7898 2.80969 9.72246 1.90278C8.65509 0.995878 7.30052 0.498615 5.8999 0.500064Z" fill="#344054"/>
</g>
<defs>
<clipPath id="clip0_230_79884">
<rect width="12" height="12" fill="white"/>
</clipPath>
</defs>
</svg>
