<svg width="24" height="24" viewBox="0 0 24 24" fill="none" xmlns="http://www.w3.org/2000/svg">
<g clip-path="url(#clip0_401_3796)">
<path fill-rule="evenodd" clip-rule="evenodd" d="M11.7998 1.00001C8.99838 0.99788 6.28774 1.99327 4.15345 3.80786C2.01917 5.62244 0.600696 8.13766 0.152147 10.9029C-0.296401 13.6682 0.254281 16.5028 1.70554 18.899C3.15681 21.2952 5.41383 23.0964 8.07227 23.9799C8.66262 24.0872 8.8773 23.7229 8.8773 23.4107C8.8773 23.131 8.86754 22.3894 8.86103 21.4054C5.58237 22.1178 4.88956 19.8247 4.88956 19.8247C4.35288 18.4618 3.58037 18.1008 3.58037 18.1008C2.51026 17.3689 3.66169 17.3836 3.66169 17.3836C4.84565 17.4665 5.4669 18.5984 5.4669 18.5984C6.51913 20.4004 8.22677 19.88 8.89844 19.5775C9.00578 18.8163 9.31153 18.2959 9.64655 18.0016C7.02817 17.7039 4.27644 16.6924 4.27644 12.1744C4.25941 11.003 4.69452 9.87012 5.4913 9.01126C5.36933 8.71201 4.96437 7.51504 5.60514 5.88872C5.60514 5.88872 6.5972 5.57322 8.84802 7.09871C9.81019 6.83705 10.8027 6.70363 11.7998 6.70188C12.7969 6.70376 13.7894 6.83718 14.7516 7.09871C17.0024 5.57322 17.9912 5.89035 17.9912 5.89035C18.6352 7.51342 18.2303 8.71201 18.1083 9.01126C18.8645 9.8358 19.3199 10.8864 19.3199 12.1744C19.3199 16.7037 16.5633 17.7007 13.9368 17.9918C14.3596 18.3561 14.7369 19.0766 14.7369 20.1759C14.7369 21.7535 14.7223 23.0236 14.7223 23.4107C14.7223 23.7262 14.9353 24.0937 15.5338 23.9783C18.1917 23.0937 20.4479 21.2917 21.8981 18.895C23.3483 16.4984 23.8979 13.6637 23.4484 10.8988C22.9989 8.13384 21.5797 5.61925 19.4449 3.80544C17.3102 1.99163 14.601 0.997108 11.7998 1.00001Z" fill="black"/>
</g>
<defs>
<clipPath id="clip0_401_3796">
<rect width="24" height="24" fill="white"/>
</clipPath>
</defs>
</svg>
