<svg width="225" height="212" viewBox="0 0 225 212" fill="none" xmlns="http://www.w3.org/2000/svg">
<g clip-path="url(#clip0_776_45097)">
<path d="M127.538 116.832H52.7594V23.832L109.962 23.9995L127.538 43.0897V116.832Z" fill="#E4E7EC"/>
<path d="M75.1253 76.8899C75.0323 76.9829 73.7915 75.86 71.862 73.9739C69.9325 72.0879 67.3081 69.4325 64.4542 66.4545L64.1378 66.1195L64.4542 65.7845V65.7535C67.2957 62.7569 69.9077 60.0767 71.8372 58.172C73.7666 56.2673 75.0013 55.132 75.0943 55.225C75.1874 55.3181 74.1327 56.6148 72.3335 58.6435C70.5343 60.6723 67.9906 63.4207 65.1553 66.4235H65.1243V65.7845C67.9782 68.7625 70.5157 71.4923 72.3211 73.5024C74.1265 75.5126 75.2246 76.7968 75.1253 76.8899Z" fill="#1D2939"/>
<path d="M105.135 55.2251C105.234 55.132 106.475 56.255 108.404 58.141C110.334 60.0271 112.958 62.6825 115.806 65.6605L116.128 65.9955L115.812 66.3305H115.781C112.933 69.3333 110.321 72.0073 108.398 73.9119C106.475 75.8166 105.234 76.952 105.135 76.8589C105.035 76.7659 106.103 75.4692 107.902 73.4404C109.701 71.4117 112.245 68.6633 115.074 65.6667V65.6294V66.2995C112.226 63.3215 109.682 60.5917 107.877 58.5877C106.072 56.5838 105.042 55.3182 105.135 55.2251Z" fill="#1D2939"/>
<path d="M81.0317 80.3086C80.8083 80.1721 84.6859 73.4096 89.7175 65.2077C94.749 57.0058 98.9802 50.4729 99.2098 50.6156C99.4394 50.7583 95.5618 57.5146 90.524 65.7164C85.4862 73.9183 81.2612 80.4513 81.0317 80.3086Z" fill="#1D2939"/>
<path d="M109.955 24.0059L109.887 39.5844C109.885 40.1219 109.991 40.6542 110.199 41.1498C110.407 41.6453 110.713 42.094 111.098 42.469C111.483 42.8441 111.939 43.1379 112.44 43.333C112.941 43.5281 113.476 43.6205 114.013 43.6047L127.538 43.1022L109.955 24.0059Z" fill="#E4E7EC"/>
<path d="M77.1913 86.8291H44.0302V106.986H77.1913V86.8291Z" fill="#FFB400"/>
<path d="M53.4543 101.03L54.3167 100.031C54.5451 100.404 54.8638 100.713 55.2434 100.93C55.6229 101.147 56.051 101.264 56.4881 101.272C57.6607 101.272 58.2687 100.558 58.2687 99.1562V93.3119H54.509V92.0215H59.7453V99.0818C59.7453 101.402 58.6161 102.55 56.4881 102.55C55.897 102.562 55.3119 102.43 54.7833 102.165C54.2548 101.9 53.7986 101.51 53.4543 101.03Z" fill="#101828"/>
<path d="M61.8237 101.222L62.3758 100.062C63.3433 100.853 64.5575 101.279 65.8067 101.266C67.6121 101.266 68.3814 100.565 68.3814 99.6589C68.3814 97.1152 62.078 98.7221 62.078 94.8569C62.078 93.2501 63.3189 91.8789 66.0611 91.8789C67.2436 91.8574 68.4072 92.1785 69.4113 92.8034L68.915 93.9946C68.0636 93.4461 67.0738 93.1513 66.0611 93.1446C64.2929 93.1446 63.536 93.8891 63.536 94.7949C63.536 97.3386 69.8394 95.7503 69.8394 99.5721C69.8394 101.16 68.5614 102.531 65.8067 102.531C64.3674 102.571 62.9592 102.108 61.8237 101.222Z" fill="#101828"/>
<g clip-path="url(#clip1_776_45097)">
<path d="M143.648 35.9994C134.77 49.8591 101.754 102.111 92.954 116.06C92.377 116.975 92.1847 118.08 92.419 119.136C92.6533 120.192 93.2952 121.113 94.205 121.698L151.226 158.312C151.681 158.604 152.19 158.803 152.723 158.898C153.256 158.993 153.803 158.981 154.331 158.863C154.859 158.746 155.359 158.525 155.802 158.213C156.244 157.901 156.621 157.505 156.91 157.047L182.384 116.626L187.35 119.497C187.936 119.835 188.63 119.932 189.286 119.768C189.942 119.604 190.509 119.191 190.866 118.616L211.039 85.8169C211.218 85.5257 211.339 85.2019 211.393 84.8641C211.447 84.5263 211.434 84.1812 211.355 83.8484C211.275 83.5156 211.131 83.2018 210.93 82.9248C210.729 82.6479 210.476 82.4132 210.184 82.2343L205.786 79.4989L207.734 76.3274C208.295 75.4126 208.473 74.3133 208.229 73.2681C207.985 72.223 207.339 71.3163 206.43 70.7448L149.239 34.7434C148.329 34.1763 147.232 33.9901 146.186 34.2251C145.14 34.4601 144.228 35.0975 143.648 35.9994Z" fill="#344054"/>
<path d="M147.687 39.2422L93.6133 117.786L151.457 157.035L204.868 78.9348L147.687 39.2422Z" fill="#E4E7EC"/>
<path d="M141.552 33.1568L92.905 115.168L153.272 150.426L201.285 68.901L141.552 33.1568Z" fill="#E4E7EC"/>
<path d="M130.33 34.0749L93.0712 121.851L157.598 148.733L194.3 61.523L130.33 34.0749Z" fill="white"/>
<path d="M130.334 34.0767L194.32 61.4366L194.429 61.4792L194.397 61.5612C184.091 86.064 171.41 116.211 157.713 148.773L157.674 148.875L157.572 148.835L157.096 148.65L93.0441 121.944L92.9504 121.907L92.9869 121.814C115.081 69.9225 129.997 34.8852 130.341 34.0797C129.989 34.8822 115.159 69.9528 93.1634 121.891L93.1101 121.763L157.174 148.438L157.65 148.623L157.507 148.68C171.219 116.124 183.912 85.9809 194.228 61.4772L194.276 61.595L130.334 34.0767Z" fill="#344054"/>
<path d="M173.288 91.8921C173.222 92.06 162.021 87.6861 148.278 82.1259C134.535 76.5658 123.44 71.9185 123.509 71.7521C123.578 71.5857 134.772 75.9566 148.523 81.5198C162.273 87.083 173.353 91.7242 173.288 91.8921Z" fill="#344054"/>
<path d="M184.525 79.0975C193.273 82.4992 203.124 78.1586 206.529 69.4025C209.934 60.6464 205.603 50.7905 196.856 47.3888C188.108 43.9871 178.257 48.3277 174.852 57.0838C171.447 65.8399 175.778 75.6958 184.525 79.0975Z" fill="#0BA5EC"/>
<g clip-path="url(#clip2_776_45097)">
<path d="M196.393 73.9269L203.165 62.1964C203.697 61.2747 203.3 60.0396 202.281 59.4517L189.322 51.9693C188.303 51.3814 187.035 51.6545 186.503 52.5762L179.73 64.3066C179.198 65.2283 179.596 66.4634 180.614 67.0513L193.574 74.5337C194.592 75.1216 195.861 74.8485 196.393 73.9269ZM187.62 63.2537L188.34 66.496L193.14 64.8096C193.451 64.6986 193.821 64.9124 193.876 65.2455L194.861 71.0428C194.933 71.4529 194.483 71.7185 194.104 71.4993L183.005 65.0912C182.616 64.8667 182.635 64.3416 183.035 64.2041L186.888 62.8536C187.19 62.7373 187.547 62.932 187.62 63.2537Z" fill="white"/>
</g>
<rect width="48" height="1" transform="translate(130.129 52.5566) rotate(21.25)" fill="#475467"/>
<rect width="54" height="1" transform="translate(126.142 62.8086) rotate(21.25)" fill="#475467"/>
<rect width="54" height="1" transform="translate(122.88 71.1963) rotate(21.25)" fill="#475467"/>
<rect width="54" height="1" transform="translate(119.618 79.584) rotate(21.25)" fill="#475467"/>
<rect width="54" height="1" transform="translate(116.356 87.9727) rotate(21.25)" fill="#475467"/>
<rect width="54" height="1" transform="translate(113.094 96.3604) rotate(21.25)" fill="#475467"/>
<rect width="54" height="1" transform="translate(109.832 104.749) rotate(21.25)" fill="#475467"/>
<rect width="54" height="1" transform="translate(106.57 113.137) rotate(21.25)" fill="#475467"/>
</g>
<path d="M0.932068 143.54L29.4807 206.69C30.2485 208.063 31.3504 209.22 32.6843 210.054C34.0182 210.888 35.541 211.372 37.1116 211.461L168.838 211.282C168.678 209.945 168.041 208.712 167.044 207.807C166.048 206.902 164.758 206.387 163.413 206.357L113.395 205.267L87.8091 143.86C87.4107 142.901 86.7384 142.08 85.8761 141.501C85.0139 140.921 84 140.609 82.9612 140.603L3.18925 140C2.77792 140.018 2.37706 140.135 2.02052 140.341C1.664 140.547 1.3623 140.836 1.14091 141.183C0.91954 141.53 0.784973 141.926 0.748627 142.336C0.71228 142.746 0.775192 143.159 0.932068 143.54Z" fill="#3E4784"/>
<path d="M110.984 212C110.825 211.793 110.695 211.564 110.599 211.32C110.343 210.769 110.035 210.038 109.65 209.281L106.303 201.714C103.52 195.302 99.7364 186.427 95.6708 176.577C91.6053 166.728 87.9758 157.776 85.5262 151.248C84.2437 147.977 83.2946 145.335 82.6534 143.553C82.3712 142.693 82.1276 142.001 81.9352 141.424C81.8367 141.176 81.7679 140.918 81.73 140.654C81.881 140.872 82.0018 141.109 82.0891 141.36C82.3199 141.924 82.6149 142.642 82.9612 143.437C83.7307 145.361 84.7823 147.952 86.0649 151.132L96.4275 176.27C100.467 186.068 104.123 194.93 106.841 201.484C108.124 204.639 109.163 207.229 109.945 209.179L110.753 211.282C110.864 211.509 110.942 211.751 110.984 212Z" fill="#475467"/>
<path d="M59.3374 174.153C59.34 174.962 59.1022 175.755 58.6542 176.429C58.2062 177.104 57.5681 177.63 56.8208 177.942C56.0734 178.253 55.2504 178.336 54.456 178.18C53.6615 178.023 52.9313 177.635 52.3579 177.063C51.7844 176.491 51.3935 175.762 51.2346 174.968C51.0757 174.174 51.156 173.351 51.4652 172.603C51.7745 171.854 52.2989 171.215 52.9719 170.765C53.645 170.315 54.4365 170.074 55.2462 170.074C55.7829 170.073 56.3146 170.177 56.8109 170.381C57.3072 170.585 57.7583 170.885 58.1383 171.264C58.5184 171.643 58.82 172.093 59.0257 172.589C59.2315 173.085 59.3374 173.616 59.3374 174.153Z" fill="white"/>
</g>
<defs>
<clipPath id="clip0_776_45097">
<rect width="224.261" height="212" fill="white" transform="translate(0.738586)"/>
</clipPath>
<clipPath id="clip1_776_45097">
<rect width="99.5063" height="120" fill="white" transform="translate(129.456 21.1787) rotate(21.25)"/>
</clipPath>
<clipPath id="clip2_776_45097">
<rect width="25.6539" height="23.2203" fill="white" transform="translate(186.144 46.7832) rotate(30)"/>
</clipPath>
</defs>
</svg>
