<svg width="517" height="178" viewBox="0 0 517 178" fill="none" xmlns="http://www.w3.org/2000/svg">
<path d="M1.10156 103.235L47.7037 93.2667L94.8476 95.7587L141.992 140.616L188.052 173.45L235.196 169.305L282.34 17.3082L328.942 65.854L375.544 52.2025L422.146 90.7746L469.29 46.9569L515.892 28.473" stroke="#E4E7EC" stroke-width="2" stroke-linejoin="round"/>
<rect width="18" height="10" transform="translate(90.9805 78.5127)" fill="#F2F4F7"/>
<rect x="90.9805" y="91.5127" width="8" height="8" rx="4" fill="#101828" fill-opacity="0.26"/>
<rect width="18" height="10" transform="translate(184 156)" fill="#F2F4F7"/>
<rect x="184" y="169" width="8" height="8" rx="4" fill="#101828" fill-opacity="0.26"/>
<rect width="18" height="10" transform="translate(279 0.999573)" fill="#F2F4F7"/>
<rect x="279" y="13.9996" width="8" height="8" rx="4" fill="#101828" fill-opacity="0.26"/>
<rect width="18" height="10" transform="translate(372 34.9996)" fill="#F2F4F7"/>
<rect x="372" y="47.9995" width="8" height="8" rx="4" fill="#101828" fill-opacity="0.26"/>
<rect width="18" height="10" transform="translate(419 71.9995)" fill="#F2F4F7"/>
<rect x="419" y="84.9995" width="8" height="8" rx="4" fill="#101828" fill-opacity="0.26"/>
</svg>
