<svg width="220" height="200" viewBox="0 0 220 200" fill="none" xmlns="http://www.w3.org/2000/svg">
<path d="M126.388 118.288V136.864C126.388 144.853 120.375 150.856 112.357 150.856C104.924 150.856 98.3263 144.853 98.3263 136.864V107.145C98.3263 106.866 98.6312 106.866 98.6312 106.577C98.428 106.39 98.3263 106.201 98.3263 106.008C98.3263 98.5729 104.919 92.0014 112.357 92.0014C130.392 92.0014 144.983 77.7207 144.983 60.002C144.983 42.2833 130.397 28.0026 112.357 28.0026C100.636 28.0026 90.3336 34.2947 84.8802 43.7154C80.8713 50.5763 72.2938 52.8566 65.4208 48.8548C58.8477 44.863 56.5433 36.57 60.5522 29.7191C70.8542 12.0054 90.3336 0 112.357 0C145.563 0 172.76 26.8549 172.76 59.992C172.76 88.279 153.001 111.995 126.388 118.278V118.288ZM126.388 180.854V185.994C126.388 193.997 120.375 200 112.357 200C104.924 200 98.3263 193.997 98.3263 185.994V180.854C98.3263 173.145 104.919 166.863 112.357 166.863C120.375 166.863 126.388 173.145 126.388 180.854Z" fill="#FF5D0A"/>
<path d="M181.393 146.152L176.861 154.395C174.912 157.94 170.785 159.141 167.229 157.188C163.937 155.376 162.481 151.113 164.43 147.563L171.683 134.374C171.752 134.252 171.879 134.32 171.952 134.193C171.913 134.063 171.916 133.955 171.962 133.871C173.774 130.57 178.297 129.261 181.589 131.068C189.579 135.458 199.539 132.674 203.856 124.812C208.247 116.828 205.195 107.057 197.204 102.662C192.007 99.8055 185.907 100.089 181.193 102.945C177.75 105.016 173.388 103.937 171.317 100.489C169.373 97.1149 170.384 92.8812 173.833 90.8156C182.717 85.4636 194.268 84.8727 204.032 90.2394C218.748 98.3259 224.238 116.863 216.155 131.571C209.253 144.125 194.713 149.839 181.389 146.147L181.393 146.152ZM166.125 173.918L164.87 176.198C162.916 179.748 158.789 180.949 155.238 178.996C151.946 177.185 150.491 172.922 152.444 169.367L153.7 167.086C155.58 163.663 160.03 162.481 163.326 164.288C166.877 166.241 168.011 170.49 166.13 173.913L166.125 173.918Z" fill="#F1F1F1"/>
<g opacity="0.6">
<path d="M181.394 146.152L176.861 154.395C174.912 157.94 170.785 159.141 167.229 157.188C163.937 155.376 162.482 151.113 164.43 147.563L171.684 134.374C171.752 134.252 171.879 134.32 171.952 134.193C171.913 134.063 171.916 133.955 171.962 133.871C173.774 130.57 178.297 129.261 181.589 131.068C189.58 135.458 199.539 132.674 203.856 124.812C208.247 116.828 205.195 107.057 197.204 102.662C192.007 99.8055 185.907 100.089 181.193 102.945C177.75 105.016 173.388 103.937 171.317 100.489C169.373 97.1149 170.384 92.8812 173.833 90.8156C182.717 85.4636 194.269 84.8727 204.032 90.2394C218.749 98.3259 224.238 116.863 216.155 131.571C209.253 144.125 194.713 149.839 181.389 146.147L181.394 146.152ZM166.125 173.918L164.87 176.198C162.916 179.748 158.789 180.949 155.238 178.996C151.946 177.185 150.491 172.922 152.444 169.367L153.7 167.086C155.58 163.663 160.03 162.481 163.327 164.288C166.877 166.241 168.011 170.49 166.13 173.913L166.125 173.918Z" fill="#F1F1F1"/>
</g>
<path d="M33.7428 120.854L30.6198 111.486C29.2759 107.456 31.2944 103.425 35.3316 102.081C39.0749 100.835 43.395 102.756 44.7389 106.786L49.7337 121.767C49.7827 121.909 49.6357 121.958 49.6847 122.105C49.8153 122.166 49.8969 122.246 49.9296 122.344C51.181 126.092 48.972 130.509 45.2286 131.755C36.1477 134.779 31.2019 144.429 34.1781 153.361C37.2033 162.435 46.9044 167.042 55.9853 164.018C61.8941 162.048 66.0183 157.147 67.1772 151.485C68.0369 147.356 71.9761 144.766 76.1058 145.626C80.0885 146.534 82.6349 150.331 81.7698 154.46C79.5608 165.116 71.7857 174.435 60.6917 178.128C43.9772 183.698 25.7774 174.717 20.2059 158.012C15.4505 143.749 21.4083 128.48 33.7483 120.848L33.7428 120.854ZM23.2256 89.3088L22.3605 86.714C21.0166 82.6778 23.0351 78.6469 27.0668 77.2979C30.8102 76.0522 35.1303 77.9724 36.4742 82.0087L37.3393 84.598C38.6342 88.4874 36.3762 92.7575 32.6329 94.0032C28.5957 95.3468 24.5151 93.1873 23.2201 89.3033L23.2256 89.3088Z" fill="#F1F1F1"/>
<g opacity="0.6">
<path d="M33.7427 120.854L30.6196 111.486C29.2757 107.456 31.2943 103.425 35.3315 102.081C39.0748 100.835 43.3949 102.756 44.7388 106.786L49.7336 121.767C49.7825 121.909 49.6356 121.958 49.6846 122.105C49.8152 122.166 49.8968 122.246 49.9294 122.344C51.1808 126.092 48.9718 130.509 45.2285 131.755C36.1476 134.779 31.2018 144.429 34.178 153.361C37.2031 162.435 46.9043 167.042 55.9852 164.018C61.894 162.048 66.0182 157.147 67.1771 151.485C68.0368 147.356 71.976 144.766 76.1057 145.626C80.0884 146.534 82.6348 150.331 81.7696 154.46C79.5606 165.116 71.7856 174.435 60.6916 178.128C43.9771 183.698 25.7772 174.717 20.2057 158.012C15.4504 143.749 21.4082 128.48 33.7482 120.848L33.7427 120.854ZM23.2254 89.3088L22.3603 86.714C21.0164 82.6778 23.035 78.6469 27.0667 77.2979C30.8101 76.0522 35.1302 77.9724 36.4741 82.0087L37.3392 84.598C38.6341 88.4874 36.3761 92.7575 32.6328 94.0032C28.5956 95.3468 24.5149 93.1873 23.22 89.3033L23.2254 89.3088Z" fill="#F1F1F1"/>
</g>
<path d="M24.8124 138.095L30.5873 144.227L75.9863 101.484L70.2114 95.3531L24.8124 138.095Z" fill="#D0D5DD"/>
<path d="M7.28992 151.644L16.0186 160.913L41.0034 137.386L32.2747 128.117L7.28992 151.644Z" fill="#475467"/>
<g opacity="0.4">
<path d="M64.1184 55.6433C68.4585 30.6738 92.3195 13.9031 117.285 18.2423C129.361 20.3489 139.911 27.0368 146.988 37.0905C154.06 47.1442 156.797 59.3287 154.694 71.4067C152.597 83.4798 145.898 94.0226 135.842 101.103C125.786 108.173 113.599 110.905 101.523 108.808C89.4471 106.701 78.8971 100.008 71.8298 89.9595C64.7578 79.9058 62.021 67.7213 64.1232 55.6481L64.1184 55.6433Z" fill="white"/>
</g>
<path d="M56.4744 54.3202C61.5557 25.1422 89.4371 5.53367 118.622 10.6138C147.811 15.6939 167.419 43.5643 162.338 72.7471C157.256 101.925 129.38 121.534 100.191 116.453C71.0061 111.373 51.3932 83.4981 56.4744 54.3202ZM62.5438 55.3759C58.0439 81.2123 75.4092 105.891 101.251 110.385C127.094 114.884 151.778 97.5229 156.273 71.6865C160.773 45.8501 143.408 21.176 117.566 16.677C91.7234 12.178 67.039 29.5395 62.5438 55.3759Z" fill="#475467"/>
<path d="M122.206 111.007C127.67 109.525 132.901 107.079 137.677 103.723C148.436 96.1541 155.59 84.8752 157.843 71.9594C160.085 59.0484 157.16 46.0116 149.598 35.2654C142.037 24.5095 130.756 17.347 117.837 15.1048C104.913 12.8528 91.8736 15.7876 81.125 23.3472C75.7483 27.1295 71.2774 31.8318 67.8527 37.2122C64.4426 42.5926 62.0885 48.6412 60.9599 55.1015C56.3194 81.8097 74.2563 107.317 100.975 111.961C108.149 113.215 115.366 112.867 122.206 111.007ZM101.518 108.808C76.5427 104.469 59.7683 80.6135 64.1084 55.6536C66.2155 43.5805 72.9098 33.0377 82.9608 25.9575C93.0168 18.887 105.204 16.1508 117.28 18.2526C129.356 20.3495 139.901 27.052 146.983 37.1008C154.055 47.1545 156.787 59.339 154.689 71.4121C152.582 83.4853 145.893 94.0281 135.837 101.099C125.781 108.169 113.594 110.905 101.518 108.804V108.808ZM122.206 111.007C127.67 109.525 132.901 107.079 137.677 103.723C148.436 96.1541 155.59 84.8752 157.843 71.9594C160.085 59.0484 157.16 46.0116 149.598 35.2654C142.037 24.5095 130.756 17.347 117.837 15.1048C104.913 12.8528 91.8736 15.7876 81.125 23.3472C75.7483 27.1295 71.2774 31.8318 67.8527 37.2122C64.4426 42.5926 62.0885 48.6412 60.9599 55.1015C56.3194 81.8097 74.2563 107.317 100.975 111.961C108.149 113.215 115.366 112.867 122.206 111.007ZM101.518 108.808C76.5427 104.469 59.7683 80.6135 64.1084 55.6536C66.2155 43.5805 72.9098 33.0377 82.9608 25.9575C93.0168 18.887 105.204 16.1508 117.28 18.2526C129.356 20.3495 139.901 27.052 146.983 37.1008C154.055 47.1545 156.787 59.339 154.689 71.4121C152.582 83.4853 145.893 94.0281 135.837 101.099C125.781 108.169 113.594 110.905 101.518 108.804V108.808ZM123.805 116.954C129.961 115.293 135.846 112.537 141.223 108.755C153.318 100.246 161.379 87.5532 163.917 73.02C169.143 42.9655 148.949 14.2718 118.898 9.03671C104.351 6.50876 89.689 9.80187 77.5841 18.3107C65.4889 26.8292 57.4287 39.5125 54.9002 54.0458C52.362 68.5791 55.6655 83.248 64.1762 95.3405C72.6869 107.443 85.3828 115.501 99.9193 118.029C107.999 119.433 116.112 119.041 123.809 116.954H123.805ZM100.462 114.881C86.773 112.499 74.8134 104.905 66.7822 93.5051C58.7656 82.1051 55.6558 68.2885 58.0487 54.5979C60.4319 40.9024 68.0174 28.9455 79.4296 20.9258C84.4867 17.3615 90.0378 14.7706 95.8359 13.2015C103.087 11.2305 110.731 10.8576 118.341 12.1845C146.658 17.1097 165.69 44.1616 160.763 72.4727C157.179 93.0498 141.921 108.721 122.967 113.85C115.841 115.777 108.202 116.228 100.462 114.876V114.881ZM137.677 103.728C148.436 96.1589 155.59 84.88 157.843 71.9642C160.085 59.0533 157.16 46.0164 149.598 35.2702C142.037 24.5143 130.756 17.3518 117.837 15.1096C104.913 12.8577 91.8736 15.7924 81.125 23.3521C75.7483 27.1343 71.2774 31.8367 67.8527 37.217C64.4426 42.5974 62.0885 48.6461 60.9599 55.1064C56.3194 81.8145 74.2563 107.322 100.975 111.966C108.149 113.22 115.366 112.871 122.206 111.012C127.67 109.53 132.901 107.084 137.677 103.728ZM101.518 108.813C76.5427 104.474 59.7683 80.6183 64.1084 55.6585C66.2155 43.5853 72.9098 33.0425 82.9608 25.9623C93.0168 18.8918 105.204 16.1556 117.28 18.2574C129.356 20.3544 139.901 27.0568 146.983 37.1057C154.055 47.1593 156.787 59.3439 154.689 71.417C152.582 83.4901 145.893 94.0329 135.837 101.103C125.781 108.174 113.594 110.91 101.518 108.808V108.813Z" fill="#475467"/>
<path opacity="0.3" d="M89.2242 31.3331C93.2349 28.6017 97.9577 26.9068 102.836 26.0254C105.282 25.5653 107.791 25.42 110.31 25.4539C112.828 25.5217 115.352 25.8656 117.832 26.408C122.783 27.5896 127.505 29.827 131.536 32.907C135.566 35.9822 138.981 39.7741 141.562 44.0019C137.968 40.578 134.224 37.4593 130.179 34.9216C128.121 33.7158 126.072 32.5147 123.868 31.6624C121.698 30.752 119.479 29.9626 117.188 29.4735C112.635 28.379 107.912 28.1029 103.209 28.4516C98.5051 28.8439 93.8162 29.7834 89.2194 31.3283L89.2242 31.3331Z" fill="#E4E7EC"/>
<path opacity="0.3" d="M117.987 98.9619C113.38 100.492 108.377 100.836 103.441 100.352C100.966 100.124 98.5097 99.5769 96.0974 98.8602C93.69 98.1096 91.3601 97.0877 89.1222 95.8867C84.6852 93.3975 80.7519 89.9543 77.7148 85.8912C74.6777 81.828 72.4301 77.2516 71.1029 72.4766C73.6266 76.7528 76.3731 80.7723 79.5749 84.3221C81.2218 86.0461 82.8687 87.7605 84.753 89.1843C86.5888 90.6516 88.5119 92.0173 90.5802 93.1118C94.6588 95.4073 99.1297 96.9667 103.746 97.911C108.377 98.8166 113.148 99.1944 117.987 98.9667V98.9619Z" fill="#D0D5DD"/>
<path d="M57.6675 63.1635L44.9411 59.9191L44.7104 59.8603L44.5193 60.0023C39.9349 63.4099 34.2653 65.4222 28.126 65.4222C13.1806 65.4222 1.02053 53.5033 0.620745 38.6672V37.9232C0.620745 22.729 12.9383 10.4141 28.1362 10.4141C43.3339 10.4141 55.6516 22.739 55.6516 37.9232C55.6516 42.6067 54.4756 47.0296 52.3934 50.8943L52.2766 51.111L52.3771 51.3356L57.6675 63.1635Z" fill="white" stroke="#D0D5DD"/>
<path d="M32.4203 43.0155L22.8306 33.4258M32.4203 33.4258L22.8306 43.0155" stroke="#FF5D0A" stroke-width="8" stroke-linecap="round"/>
<path d="M27.6256 54.2041C36.4527 54.2041 43.6085 47.0483 43.6085 38.2212C43.6085 29.3941 36.4527 22.2383 27.6256 22.2383C18.7985 22.2383 11.6427 29.3941 11.6427 38.2212C11.6427 47.0483 18.7985 54.2041 27.6256 54.2041Z" stroke="#FF5D0A" stroke-width="8"/>
</svg>
