<svg width="220" height="200" viewBox="0 0 220 200" fill="none" xmlns="http://www.w3.org/2000/svg">
<path d="M126.388 118.288V136.864C126.388 144.853 120.375 150.856 112.357 150.856C104.925 150.856 98.3265 144.853 98.3265 136.864V107.145C98.3265 106.866 98.6314 106.866 98.6314 106.577C98.4281 106.39 98.3265 106.201 98.3265 106.008C98.3265 98.5729 104.92 92.0014 112.357 92.0014C130.392 92.0014 144.983 77.7207 144.983 60.002C144.983 42.2833 130.397 28.0026 112.357 28.0026C100.636 28.0026 90.3337 34.2947 84.8803 43.7154C80.8715 50.5763 72.2939 52.8566 65.4209 48.8548C58.8478 44.863 56.5434 36.57 60.5523 29.7191C70.8543 12.0054 90.3337 0 112.357 0C145.563 0 172.76 26.8549 172.76 59.992C172.76 88.279 153.001 111.995 126.388 118.278V118.288ZM126.388 180.854V185.994C126.388 193.997 120.375 200 112.357 200C104.925 200 98.3265 193.997 98.3265 185.994V180.854C98.3265 173.145 104.92 166.863 112.357 166.863C120.375 166.863 126.388 173.145 126.388 180.854Z" fill="#FF5D0A"/>
<path d="M181.394 146.152L176.861 154.395C174.912 157.94 170.785 159.142 167.229 157.188C163.937 155.377 162.482 151.114 164.43 147.564L171.684 134.374C171.752 134.252 171.879 134.32 171.952 134.193C171.913 134.063 171.916 133.956 171.962 133.871C173.774 130.57 178.297 129.261 181.589 131.068C189.58 135.458 199.539 132.675 203.856 124.813C208.247 116.829 205.195 107.058 197.204 102.663C192.007 99.806 185.907 100.089 181.193 102.946C177.75 105.016 173.388 103.937 171.317 100.49C169.373 97.1154 170.384 92.8816 173.833 90.8161C182.717 85.4641 194.269 84.8732 204.032 90.2398C218.749 98.3264 224.238 116.863 216.155 131.571C209.253 144.126 194.713 149.839 181.389 146.147L181.394 146.152ZM166.125 173.918L164.87 176.199C162.916 179.749 158.789 180.95 155.238 178.997C151.946 177.185 150.491 172.922 152.444 169.367L153.7 167.087C155.58 163.663 160.03 162.482 163.327 164.289C166.877 166.242 168.011 170.49 166.13 173.913L166.125 173.918Z" fill="#F1F1F1"/>
<g opacity="0.6">
<path d="M181.394 146.152L176.861 154.395C174.912 157.94 170.785 159.141 167.229 157.188C163.937 155.376 162.482 151.113 164.431 147.563L171.684 134.374C171.752 134.252 171.879 134.32 171.952 134.193C171.913 134.063 171.917 133.955 171.962 133.871C173.774 130.57 178.297 129.261 181.589 131.068C189.58 135.458 199.539 132.674 203.857 124.812C208.248 116.828 205.195 107.057 197.204 102.662C192.007 99.8055 185.907 100.089 181.194 102.945C177.75 105.016 173.388 103.937 171.318 100.489C169.374 97.1149 170.385 92.8812 173.833 90.8156C182.717 85.4636 194.269 84.8727 204.032 90.2394C218.749 98.3259 224.239 116.863 216.155 131.571C209.254 144.125 194.713 149.839 181.389 146.147L181.394 146.152ZM166.126 173.918L164.87 176.198C162.917 179.748 158.789 180.949 155.238 178.996C151.946 177.185 150.491 172.922 152.445 169.367L153.7 167.086C155.58 163.663 160.03 162.481 163.327 164.288C166.878 166.241 168.011 170.49 166.13 173.913L166.126 173.918Z" fill="#F1F1F1"/>
</g>
<path d="M33.743 120.855L30.6199 111.488C29.276 107.457 31.2946 103.426 35.3317 102.083C39.0751 100.837 43.3951 102.757 44.739 106.788L49.7338 121.769C49.7828 121.91 49.6359 121.959 49.6848 122.106C49.8154 122.168 49.897 122.248 49.9297 122.346C51.1811 126.093 48.9721 130.51 45.2287 131.756C36.1479 134.781 31.2021 144.431 34.1782 153.363C37.2034 162.436 46.9045 167.044 55.9854 164.019C61.8942 162.05 66.0185 157.149 67.1774 151.486C68.037 147.357 71.9763 144.768 76.1059 145.627C80.0887 146.536 82.635 150.333 81.7699 154.461C79.5609 165.118 71.7858 174.436 60.6918 178.13C43.9773 183.7 25.7775 174.719 20.206 158.014C15.4506 143.751 21.4084 128.481 33.7484 120.85L33.743 120.855ZM23.2257 89.3102L22.3606 86.7155C21.0167 82.6792 23.0353 78.6484 27.067 77.2994C30.8103 76.0537 35.1304 77.9739 36.4743 82.0101L37.3394 84.5994C38.6343 88.4888 36.3764 92.759 32.633 94.0047C28.5959 95.3483 24.5152 93.1887 23.2202 89.3048L23.2257 89.3102Z" fill="#F1F1F1"/>
<g opacity="0.6">
<path d="M33.743 120.855L30.6199 111.488C29.276 107.457 31.2946 103.426 35.3317 102.083C39.0751 100.837 43.3951 102.757 44.739 106.788L49.7338 121.769C49.7828 121.91 49.6359 121.959 49.6848 122.106C49.8154 122.168 49.897 122.248 49.9297 122.346C51.1811 126.093 48.9721 130.51 45.2287 131.756C36.1479 134.781 31.2021 144.431 34.1782 153.363C37.2034 162.436 46.9045 167.044 55.9854 164.019C61.8942 162.05 66.0185 157.149 67.1774 151.486C68.037 147.357 71.9763 144.768 76.1059 145.627C80.0887 146.536 82.635 150.333 81.7699 154.461C79.5609 165.118 71.7858 174.436 60.6918 178.13C43.9773 183.7 25.7775 174.719 20.206 158.014C15.4506 143.751 21.4084 128.481 33.7484 120.85L33.743 120.855ZM23.2257 89.3102L22.3606 86.7155C21.0167 82.6792 23.0353 78.6484 27.067 77.2994C30.8103 76.0537 35.1304 77.9739 36.4743 82.0101L37.3394 84.5994C38.6343 88.4888 36.3764 92.759 32.633 94.0047C28.5959 95.3483 24.5152 93.1887 23.2202 89.3048L23.2257 89.3102Z" fill="#F1F1F1"/>
</g>
<path d="M7.29004 151.641L16.0187 160.91L41.0035 137.384L32.2748 128.115L7.29004 151.641Z" fill="#475467"/>
<path d="M57.6675 63.164L44.9411 59.9196L44.7104 59.8608L44.5193 60.0028C39.9349 63.4104 34.2653 65.4227 28.126 65.4227C13.1806 65.4227 1.02053 53.5037 0.620745 38.6677V37.9237C0.620745 22.7295 12.9383 10.4146 28.1362 10.4146C43.3339 10.4146 55.6516 22.7395 55.6516 37.9237C55.6516 42.6072 54.4756 47.03 52.3934 50.8948L52.2766 51.1114L52.3771 51.3361L57.6675 63.164Z" fill="white" stroke="#D0D5DD"/>
<path d="M32.4201 43.018L22.8303 33.4282M32.4201 33.4282L22.8303 43.018" stroke="#FF5D0A" stroke-width="8" stroke-linecap="round"/>
<path d="M27.6255 54.206C36.4526 54.206 43.6084 47.0503 43.6084 38.2231C43.6084 29.396 36.4526 22.2402 27.6255 22.2402C18.7984 22.2402 11.6426 29.396 11.6426 38.2231C11.6426 47.0503 18.7984 54.206 27.6255 54.206Z" stroke="#FF5D0A" stroke-width="8"/>
</svg>
