<svg width="24" height="24" viewBox="0 0 24 24" fill="none" xmlns="http://www.w3.org/2000/svg">
<g clip-path="url(#clip0_8798_1067)">
<path d="M15.4939 8.20008C16.1478 9.03993 15.3129 10.3894 15.3147 10.4717C15.3147 10.4717 14.84 7.36002 15.4939 8.20008ZM14.3391 14.2643C14.2677 15.2913 12.2267 16.2971 12.2267 16.2971C11.9303 15.7085 10.5387 14.7767 10.3753 14.5638C10.2116 14.3509 14.4109 13.2372 14.3391 14.2643ZM16.5016 10.6597C16.3136 10.666 16.3271 10.6757 16.33 10.2504C16.3328 9.82459 17.5899 8.31325 17.6827 8.52237C17.7753 8.73209 16.4481 10.6211 16.4481 10.6211L16.5016 10.6597ZM7.02356 10.7317C7.02356 10.7317 -0.717348 14.3456 3.93143 13.7631C8.58001 13.1805 8.92031 14.89 8.92031 14.89L7.60938 14.7763C6.29866 14.6623 6.56041 13.9022 5.67801 13.9234C4.79582 13.9443 4.09505 15.2531 3.73181 14.9294C3.36896 14.6055 3.16201 15.8569 3.16201 15.8569C3.16201 15.8569 2.06041 16.1525 2.00145 16.8321C1.94229 17.5117 3.71538 17.3724 3.71538 17.3724C3.71538 17.3724 3.09039 17.8073 3.63921 18.2461C4.18784 18.6853 5.6147 18.0267 5.6147 18.0267C5.6147 18.0267 4.73666 19.1243 5.0914 19.5465C5.44594 19.9687 6.40431 19.0737 6.40431 19.0737L6.35366 19.6563L7.0841 19.1328C7.0841 19.1328 7.04196 19.6184 7.52728 19.6605C8.01279 19.7028 10.0767 15.0885 10.0767 15.0885C10.0767 15.0885 12.3972 15.9216 11.7471 18.5947C9.25645 26.9871 12.264 24.0001 11.099 37.0909C9.93399 50.1817 11.1128 38.0677 11.5693 35.6745C12.0255 33.2814 12.1197 25.346 12.1197 25.346L12.9888 17.2402C13.0088 16.6295 14.5427 15.3888 15.1821 13.7752C15.8212 12.1619 16.6933 11.2667 16.6933 11.2667C16.6933 11.2667 18.4476 11.458 19.22 12.0786C19.992 12.6983 21.0704 11.9125 20.8148 11.9307C20.5592 11.9491 19.9025 11.107 19.9025 11.107C19.9025 11.107 21.6632 10.672 22.1382 10.1002C22.6134 9.52802 21.0718 9.63308 21.0718 9.63308C21.0718 9.63308 22.1785 8.58252 22.3708 8.23312C22.5626 7.88333 21.8448 8.0149 21.8448 8.0149C21.8448 8.0149 22.1342 7.49159 22.323 7.34341C22.5119 7.19502 22.0122 7.09788 22.0122 7.09788C22.0122 7.09788 22.4142 6.28968 22.3186 5.91536C22.2233 5.54084 20.7169 6.38425 20.428 6.64284C20.1388 6.90182 19.618 6.52472 19.8918 6.3158C20.1651 6.10648 20.4654 5.32657 20.4654 5.32657L19.7856 5.50602C19.7856 5.50602 20.5544 3.96618 20.2691 3.65794C19.9836 3.3495 19.3412 3.9832 19.3412 3.9832C19.3412 3.9832 19.8327 2.40518 19.5816 2.24552C19.3309 2.08605 18.9287 2.58502 18.8983 2.54288C18.8678 2.50054 18.9784 1.69986 18.5718 1.52556C18.1644 1.35106 17.2716 1.06557 16.6573 1.58293C16.3906 1.80669 16.2899 2.0819 16.2612 2.32268C16.1763 1.84132 15.9395 1.34789 15.282 2.15194C14.2317 3.43655 15.8675 4.50096 15.0424 4.14424C14.2178 3.78753 14.0686 4.16066 14.2916 4.68317C14.5142 5.20588 14.2048 5.46743 14.2048 5.46743C14.2048 5.46743 12.6226 5.15939 12.3563 4.36464C12.089 3.5699 11.4878 3.73589 11.0741 4.63965C10.66 5.5438 11.4498 6.11498 11.2131 5.94365C10.9759 5.77212 10.2166 5.82395 10.878 6.90439C11.5396 7.98502 12.97 9.26132 12.97 9.26132C12.97 9.26132 12.5249 9.78166 11.8834 10.7612C11.4743 11.3868 11.5774 12.137 11.7056 12.5986C11.338 11.5577 10.4198 8.92756 10.2356 8.12371C10.0045 7.1141 10.44 6.34626 10.2166 5.82395C9.99362 5.30144 9.41374 5.60335 8.97788 6.3708C8.87639 6.55024 8.82653 6.68557 8.80734 6.79043C8.67261 6.74512 8.45814 6.78944 8.11251 7.06781C7.24693 7.76482 8.53214 8.81518 8.53214 8.81518C8.53214 8.81518 7.70692 8.45886 6.68782 8.44284C5.66872 8.42681 7.21389 9.30525 6.75726 9.93697C6.29965 10.5681 7.02356 10.7317 7.02356 10.7317Z" fill="#8BCC47"/>
</g>
<defs>
<clipPath id="clip0_8798_1067">
<rect width="24" height="24" fill="white"/>
</clipPath>
</defs>
</svg>
