<svg width="24" height="24" viewBox="0 0 24 24" fill="none" xmlns="http://www.w3.org/2000/svg">
<path d="M23.9018 13.5237C24.7418 6.94894 20.0985 0.937969 13.5357 0.0981562C6.97294 -0.74175 0.937969 3.9015 0.0981562 10.4643C-0.74175 17.0271 3.9015 23.05 10.4643 23.9018C17.0391 24.7418 23.05 20.0985 23.9018 13.5237Z" fill="#FF6C37"/>
<path d="M16.3312 7.70466L11.2681 12.7678L9.84027 11.34C14.8194 6.36094 15.3113 6.79284 16.3311 7.70466H16.3312Z" fill="white"/>
<path d="M11.2681 12.888C11.2321 12.888 11.2081 12.876 11.1841 12.852L9.7444 11.4243C9.73304 11.4134 9.72399 11.4004 9.7178 11.386C9.71162 11.3715 9.70844 11.356 9.70844 11.3403C9.70844 11.3246 9.71162 11.3091 9.7178 11.2946C9.72399 11.2802 9.73304 11.2672 9.7444 11.2564C14.8075 6.1932 15.3354 6.6731 16.4032 7.63291C16.4272 7.65691 16.4392 7.68091 16.4392 7.71691C16.4392 7.75291 16.4272 7.77691 16.4032 7.80091L11.3401 12.852C11.3281 12.876 11.2921 12.888 11.2681 12.888V12.888ZM10.0084 11.3403L11.2681 12.6001L16.1513 7.71691C15.2635 6.9251 14.6635 6.6851 10.0084 11.3404V11.3403Z" fill="#FF6C37"/>
<path d="M12.7198 14.2197L11.3401 12.8399L16.4032 7.77686C17.759 9.14467 15.7313 11.3642 12.7198 14.2197Z" fill="white"/>
<path d="M12.7198 14.3396C12.6838 14.3396 12.6598 14.3276 12.6359 14.3036L11.2561 12.9238C11.2321 12.8998 11.2321 12.8758 11.2321 12.8398C11.2321 12.8039 11.2441 12.7798 11.2681 12.7559L16.3313 7.69275C16.3421 7.68137 16.3551 7.67231 16.3696 7.66612C16.384 7.65993 16.3996 7.65674 16.4153 7.65674C16.431 7.65674 16.4465 7.65993 16.461 7.66612C16.4754 7.67231 16.4884 7.68137 16.4993 7.69275C16.6525 7.83451 16.7735 8.00745 16.8542 8.19993C16.9349 8.39241 16.9734 8.59994 16.9672 8.80856C16.9432 10.1404 15.4316 11.832 12.8159 14.3036C12.7799 14.3276 12.7439 14.3396 12.7199 14.3396H12.7198ZM11.5081 12.8398C12.2759 13.6197 12.5999 13.9316 12.7198 14.0516C14.7355 12.132 16.6911 10.1644 16.7032 8.80856C16.7152 8.49666 16.5952 8.18466 16.3912 7.94475L11.5081 12.8398V12.8398Z" fill="#FF6C37"/>
<path d="M9.86439 11.3759L10.8842 12.3957C10.9082 12.4197 10.9082 12.4437 10.8842 12.4677C10.8722 12.4797 10.8722 12.4797 10.8602 12.4797L8.74858 12.9356C8.64058 12.9476 8.54458 12.8756 8.52058 12.7677C8.50858 12.7077 8.53258 12.6477 8.56858 12.6117L9.79239 11.3879C9.81639 11.3639 9.85239 11.3519 9.86439 11.3759V11.3759Z" fill="white"/>
<path d="M8.71254 13.0556C8.53254 13.0556 8.40063 12.9116 8.40063 12.7317C8.40063 12.6477 8.43663 12.5637 8.49663 12.5037L9.72035 11.2799C9.79235 11.2199 9.88835 11.2199 9.96035 11.2799L10.9802 12.2997C11.0522 12.3597 11.0522 12.4677 10.9802 12.5397C10.9562 12.5637 10.9322 12.5757 10.8962 12.5877L8.78454 13.0436C8.76054 13.0436 8.73654 13.0556 8.71254 13.0556ZM9.82835 11.5079L8.65254 12.6837C8.62854 12.7077 8.61654 12.7437 8.64054 12.7797C8.65254 12.8157 8.68854 12.8276 8.72454 12.8157L10.7042 12.3837L9.82835 11.5079V11.5079Z" fill="#FF6C37"/>
<path d="M19.0067 4.89733C18.2389 4.15343 17.0031 4.17743 16.2593 4.95733C15.5154 5.73714 15.5394 6.96096 16.3193 7.70477C16.6271 8.0022 17.0247 8.18939 17.45 8.23715C17.8754 8.2849 18.3046 8.19054 18.6707 7.96877L17.3029 6.60096L19.0066 4.89733H19.0067Z" fill="white"/>
<path d="M17.663 8.36455C16.5232 8.36455 15.5994 7.44074 15.5994 6.30093C15.5994 5.16112 16.5232 4.2373 17.663 4.2373C18.1908 4.2373 18.7068 4.4413 19.0908 4.81321C19.1147 4.83721 19.1267 4.86121 19.1267 4.89721C19.1267 4.93321 19.1147 4.95721 19.0907 4.98121L17.471 6.60084L18.7428 7.87265C18.7908 7.92065 18.7908 7.99265 18.7428 8.04065L18.7188 8.06465C18.4068 8.25655 18.0349 8.36465 17.663 8.36465V8.36455ZM17.663 4.4893C16.6552 4.4893 15.8393 5.30512 15.8513 6.31293C15.8513 7.32074 16.6672 8.13665 17.675 8.12465C17.9509 8.12465 18.2269 8.06465 18.4788 7.93265L17.2191 6.68484C17.1951 6.66084 17.1831 6.63684 17.1831 6.60084C17.1831 6.56493 17.1951 6.54084 17.2191 6.51693L18.8268 4.90912C18.5028 4.63321 18.0949 4.4893 17.663 4.4893V4.4893Z" fill="#FF6C37"/>
<path d="M19.0427 4.93318L19.0187 4.90918L17.303 6.6008L18.6588 7.95662C18.7908 7.87262 18.9227 7.77662 19.0307 7.66862C19.2124 7.49057 19.3571 7.27823 19.4562 7.04388C19.5553 6.80953 19.6069 6.55784 19.608 6.3034C19.6091 6.04897 19.5597 5.79684 19.4627 5.56163C19.3656 5.32642 19.2229 5.11281 19.0427 4.93318V4.93318Z" fill="white"/>
<path d="M18.6708 8.0888C18.6348 8.0888 18.6108 8.0768 18.5868 8.0528L17.219 6.68498C17.195 6.66098 17.183 6.63698 17.183 6.60098C17.183 6.56508 17.195 6.54098 17.219 6.51708L18.9227 4.81336C18.9335 4.80198 18.9465 4.79292 18.961 4.78673C18.9754 4.78054 18.991 4.77734 19.0067 4.77734C19.0224 4.77734 19.0379 4.78054 19.0524 4.78673C19.0668 4.79292 19.0798 4.80198 19.0907 4.81336L19.1267 4.83736C19.9306 5.64117 19.9306 6.93698 19.1387 7.7528C19.0187 7.8728 18.8868 7.9808 18.7428 8.0648C18.7068 8.0768 18.6828 8.0888 18.6708 8.0888V8.0888ZM17.471 6.60098L18.6828 7.8128C18.7788 7.7528 18.8748 7.66879 18.9467 7.59689C19.6306 6.91298 19.6666 5.79717 19.0067 5.07726L17.471 6.60098H17.471Z" fill="#FF6C37"/>
<path d="M16.5352 7.92053C16.3967 7.78226 16.209 7.70459 16.0133 7.70459C15.8176 7.70459 15.6298 7.78226 15.4914 7.92053L10.9682 12.4437L11.724 13.1996L16.5112 9.00035C16.8232 8.73635 16.8471 8.26844 16.5832 7.95654C16.5592 7.94454 16.5472 7.93253 16.5352 7.92053V7.92053Z" fill="white"/>
<path d="M11.712 13.32C11.676 13.32 11.652 13.308 11.628 13.284L10.8722 12.5281C10.8608 12.5172 10.8518 12.5042 10.8456 12.4898C10.8394 12.4753 10.8362 12.4598 10.8362 12.4441C10.8362 12.4284 10.8394 12.4128 10.8456 12.3984C10.8518 12.3839 10.8608 12.3709 10.8722 12.3601L15.3954 7.83691C15.4748 7.75706 15.5692 7.6937 15.6732 7.65046C15.7771 7.60722 15.8886 7.58496 16.0013 7.58496C16.1139 7.58496 16.2254 7.60722 16.3294 7.65046C16.4333 7.6937 16.5278 7.75706 16.6072 7.83691C16.687 7.91632 16.7504 8.01074 16.7936 8.11472C16.8369 8.2187 16.8591 8.3302 16.8591 8.44282C16.8591 8.55543 16.8369 8.66694 16.7936 8.77092C16.7504 8.8749 16.687 8.96931 16.6072 9.04873L16.5712 9.08473L11.784 13.284C11.772 13.308 11.748 13.32 11.712 13.32V13.32ZM11.1361 12.4441L11.724 13.032L16.4272 8.90473C16.6912 8.68873 16.7152 8.29282 16.4992 8.02891C16.2833 7.76491 15.8873 7.74091 15.6234 7.95691C15.6114 7.96891 15.5994 7.98091 15.5754 7.99291L11.1361 12.4442V12.4441Z" fill="#FF6C37"/>
<path d="M7.50075 17.5911C7.45284 17.6151 7.42884 17.6631 7.44075 17.7111L7.64475 18.575C7.69275 18.695 7.62075 18.839 7.48875 18.875C7.39284 18.911 7.28484 18.875 7.22484 18.803L5.90503 17.4951L10.2123 13.188L11.7001 13.212L12.7079 14.2198C12.4679 14.4237 11.0162 15.8275 7.50075 17.5911V17.5911Z" fill="white"/>
<path d="M7.40486 18.9947C7.30886 18.9947 7.21286 18.9588 7.15286 18.8868L5.84505 17.579C5.82114 17.555 5.80914 17.531 5.80914 17.4951C5.80914 17.4591 5.82114 17.4351 5.84514 17.4111L10.1523 13.1039C10.1763 13.0799 10.2123 13.0679 10.2363 13.0679L11.7241 13.0919C11.76 13.0919 11.7841 13.1039 11.808 13.1279L12.8158 14.1357C12.8398 14.1597 12.8518 14.1957 12.8518 14.2317C12.8518 14.2677 12.8398 14.2917 12.8038 14.3157L12.7198 14.3876C11.4481 15.5034 9.72039 16.6192 7.57277 17.687L7.77677 18.5389C7.81277 18.6948 7.74077 18.8628 7.59677 18.9467C7.52477 18.9828 7.46477 18.9948 7.40486 18.9948V18.9947ZM6.08505 17.4951L7.32086 18.7188C7.35686 18.7788 7.42886 18.8028 7.48877 18.7668C7.54877 18.7308 7.57277 18.6588 7.53677 18.5988L7.33286 17.735C7.30886 17.627 7.35686 17.531 7.45286 17.4831C9.57639 16.4153 11.2921 15.3115 12.5519 14.2197L11.6641 13.3319L10.2843 13.3079L6.08505 17.4951V17.4951Z" fill="#FF6C37"/>
<path d="M4.88532 18.5269L5.91704 17.4951L7.45285 19.0307L5.00523 18.8628C4.89723 18.8508 4.82523 18.7548 4.83732 18.6468C4.83732 18.5988 4.84932 18.5508 4.88523 18.5268L4.88532 18.5269Z" fill="white"/>
<path d="M7.45284 19.1387L4.99321 18.9708C4.81321 18.9588 4.69321 18.8028 4.70531 18.6228C4.71731 18.5508 4.74131 18.4789 4.80131 18.4309L5.83312 17.3991C5.84395 17.3877 5.85697 17.3787 5.8714 17.3725C5.88584 17.3663 5.90137 17.3631 5.91707 17.3631C5.93277 17.3631 5.94831 17.3663 5.96274 17.3725C5.97717 17.3787 5.99019 17.3877 6.00102 17.3991L7.53674 18.9347C7.57274 18.9708 7.58474 19.0188 7.56074 19.0667C7.53674 19.1147 7.50074 19.1387 7.45284 19.1387ZM5.91702 17.6631L4.96921 18.6109C4.93321 18.6348 4.93321 18.6948 4.96921 18.7188C4.98121 18.7308 4.99321 18.7428 5.01721 18.7428L7.14084 18.8868L5.91702 17.663V17.6631ZM9.79237 13.7398C9.72037 13.7398 9.67237 13.6798 9.67237 13.6198C9.67237 13.5838 9.68437 13.5598 9.70837 13.5358L10.8722 12.372C10.883 12.3606 10.896 12.3515 10.9105 12.3453C10.9249 12.3391 10.9405 12.3359 10.9562 12.3359C10.9719 12.3359 10.9874 12.3391 11.0019 12.3453C11.0163 12.3515 11.0293 12.3606 11.0402 12.372L11.796 13.1279C11.832 13.1639 11.844 13.1999 11.832 13.2479C11.82 13.2839 11.784 13.3199 11.736 13.3319L9.81637 13.7397H9.79237V13.7398ZM10.9562 12.624L10.1643 13.4158L11.4601 13.1399L10.9562 12.624V12.624Z" fill="#FF6C37"/>
<path d="M11.7 13.2117L10.3803 13.4996C10.2843 13.5236 10.1883 13.4636 10.1643 13.3676C10.1523 13.3076 10.1643 13.2476 10.2123 13.1997L10.9442 12.4678L11.7 13.2117V13.2117Z" fill="white"/>
<path d="M10.3563 13.6197C10.3168 13.6201 10.2776 13.6126 10.241 13.5976C10.2044 13.5827 10.1712 13.5606 10.1433 13.5327C10.1153 13.5047 10.0932 13.4715 10.0783 13.4349C10.0634 13.3984 10.0559 13.3592 10.0563 13.3197C10.0563 13.2357 10.0923 13.1637 10.1403 13.1037L10.8722 12.3718C10.883 12.3605 10.8961 12.3514 10.9105 12.3452C10.9249 12.339 10.9405 12.3358 10.9562 12.3358C10.9719 12.3358 10.9875 12.339 11.0019 12.3452C11.0163 12.3514 11.0294 12.3605 11.0402 12.3718L11.796 13.1277C11.832 13.1637 11.844 13.1997 11.832 13.2477C11.82 13.2837 11.784 13.3197 11.736 13.3317L10.4163 13.6197H10.3563ZM10.9562 12.6238L10.3083 13.2717C10.2843 13.2957 10.2843 13.3197 10.2963 13.3437C10.3083 13.3677 10.3323 13.3797 10.3683 13.3797L11.4721 13.1397L10.9562 12.6238V12.6238ZM19.0547 6.08496C19.0307 6.01306 18.9467 5.97706 18.8747 6.00106C18.8028 6.02506 18.7668 6.10896 18.7908 6.18106C18.7908 6.19296 18.8028 6.20496 18.8028 6.21696C18.8748 6.36096 18.8508 6.54096 18.7548 6.67287C18.7068 6.73287 18.7188 6.81687 18.7668 6.86487C18.8268 6.91287 18.9107 6.90087 18.9587 6.84087C19.1387 6.61287 19.1747 6.32496 19.0547 6.08496V6.08496Z" fill="#FF6C37"/>
</svg>
