<svg width="20" height="20" viewBox="0 0 20 20" fill="none" xmlns="http://www.w3.org/2000/svg">
<g clip-path="url(#clip0_617_16943)">
<path d="M5.17199 12.1693C5.17199 13.1349 4.39159 13.9154 3.42596 13.9154C2.46034 13.9154 1.67993 13.1349 1.67993 12.1693C1.67993 11.2037 2.46034 10.4233 3.42603 10.4233H5.17192V12.1694L5.17199 12.1693ZM6.04504 12.1693C6.04504 11.2037 6.82544 10.4233 7.79106 10.4233C8.75669 10.4233 9.53709 11.2037 9.53709 12.1694V16.5344C9.53709 17.5 8.75669 18.2805 7.791 18.2805C6.8255 18.2805 6.04504 17.5 6.04504 16.5344V12.1694V12.1693Z" fill="#E01E5A"/>
<path d="M7.79104 5.15856C6.82541 5.15856 6.04494 4.37816 6.04494 3.41253C6.04494 2.44691 6.82548 1.6665 7.79104 1.6665C8.7566 1.6665 9.53706 2.44691 9.53706 3.41253V5.15863H7.79097L7.79104 5.15856ZM7.79104 6.04482C8.75666 6.04482 9.53706 6.82523 9.53706 7.79085C9.53706 8.75648 8.75666 9.53688 7.79097 9.53688H3.41278C2.44709 9.53688 1.66669 8.75648 1.66669 7.79079C1.66669 6.82529 2.44709 6.04482 3.41272 6.04482H7.79097H7.79104Z" fill="#36C5F0"/>
<path d="M14.7884 7.79085C14.7884 6.82523 15.5688 6.04476 16.5344 6.04476C17.5 6.04476 18.2805 6.82523 18.2805 7.79085C18.2805 8.75648 17.5 9.53688 16.5344 9.53688H14.7884V7.79079V7.79085ZM13.9154 7.79085C13.9154 8.75648 13.1349 9.53688 12.1693 9.53688C11.2037 9.53688 10.4233 8.75648 10.4233 7.79079V3.4126C10.4233 2.44691 11.2037 1.6665 12.1693 1.6665C13.1349 1.6665 13.9153 2.44691 13.9153 3.41253V7.79079L13.9154 7.79085Z" fill="#2EB67D"/>
<path d="M12.1693 14.7884C13.1349 14.7884 13.9154 15.5688 13.9154 16.5344C13.9154 17.5 13.1349 18.2805 12.1693 18.2805C11.2037 18.2805 10.4233 17.5 10.4233 16.5344V14.7884H12.1694H12.1693ZM12.1693 13.9154C11.2037 13.9154 10.4233 13.1349 10.4233 12.1693C10.4233 11.2037 11.2037 10.4233 12.1694 10.4233H16.5476C17.5132 10.4233 18.2937 11.2037 18.2937 12.1694C18.2937 13.1349 17.5132 13.9154 16.5476 13.9154H12.1694H12.1693Z" fill="#ECB22E"/>
</g>
<defs>
<clipPath id="clip0_617_16943">
<rect width="16.6667" height="16.6667" fill="white" transform="translate(1.66669 1.6665)"/>
</clipPath>
</defs>
</svg>
