<svg width="22" height="22" viewBox="0 0 22 22" fill="none" xmlns="http://www.w3.org/2000/svg">
<path d="M5.70001 18.3002L2.95001 17.7002C2.70001 17.6502 2.50001 17.5209 2.35001 17.3122C2.20001 17.1042 2.14168 16.8752 2.17501 16.6252L2.45001 13.8002L0.575012 11.6502C0.408346 11.4669 0.325012 11.2502 0.325012 11.0002C0.325012 10.7502 0.408346 10.5335 0.575012 10.3502L2.45001 8.20021L2.17501 5.37521C2.14168 5.12521 2.20001 4.89621 2.35001 4.68821C2.50001 4.47954 2.70001 4.35021 2.95001 4.30021L5.70001 3.70021L7.15001 1.25021C7.28335 1.03354 7.46668 0.891873 7.70001 0.825206C7.93335 0.75854 8.16668 0.766873 8.40001 0.850206L11 1.95021L13.6 0.850206C13.8333 0.766873 14.0667 0.75854 14.3 0.825206C14.5333 0.891873 14.7167 1.03354 14.85 1.25021L16.3 3.70021L19.05 4.30021C19.3 4.35021 19.5 4.47954 19.65 4.68821C19.8 4.89621 19.8583 5.12521 19.825 5.37521L19.55 8.20021L21.425 10.3502C21.5917 10.5335 21.675 10.7502 21.675 11.0002C21.675 11.2502 21.5917 11.4669 21.425 11.6502L19.55 13.8002L19.825 16.6252C19.8583 16.8752 19.8 17.1042 19.65 17.3122C19.5 17.5209 19.3 17.6502 19.05 17.7002L16.3 18.3002L14.85 20.7502C14.7167 20.9669 14.5333 21.1085 14.3 21.1752C14.0667 21.2419 13.8333 21.2335 13.6 21.1502L11 20.0502L8.40001 21.1502C8.16668 21.2335 7.93335 21.2419 7.70001 21.1752C7.46668 21.1085 7.28335 20.9669 7.15001 20.7502L5.70001 18.3002ZM9.25001 13.8502C9.43335 14.0335 9.66668 14.1252 9.95001 14.1252C10.2333 14.1252 10.4667 14.0335 10.65 13.8502L14.9 9.60021C15.1 9.40021 15.2 9.16254 15.2 8.88721C15.2 8.61254 15.1 8.37521 14.9 8.17521C14.7 7.97521 14.4627 7.87521 14.188 7.87521C13.9127 7.87521 13.675 7.97521 13.475 8.17521L9.95001 11.7002L8.50001 10.2752C8.30001 10.0919 8.06268 10.0042 7.78801 10.0122C7.51268 10.0209 7.28335 10.1169 7.10001 10.3002C6.91668 10.4835 6.82501 10.7169 6.82501 11.0002C6.82501 11.2835 6.91668 11.5169 7.10001 11.7002L9.25001 13.8502Z" fill="#FDB022"/>
</svg>
