<svg width="337" height="280" viewBox="0 0 337 280" fill="none" xmlns="http://www.w3.org/2000/svg">
<g clip-path="url(#clip0_1937_162054)">
<path d="M336.147 77.8827L292.211 54.1562L261.226 111.533L305.162 135.259L336.147 77.8827Z" fill="#0BA5EC"/>
<path opacity="0.6" d="M336.147 77.8827L292.211 54.1562L261.226 111.533L305.162 135.259L336.147 77.8827Z" fill="white"/>
<path d="M325.208 82.4804L294.387 65.8359L292.713 68.9357L323.535 85.5801L325.208 82.4804Z" fill="#0BA5EC"/>
<path d="M322.279 87.91L291.457 71.2656L289.783 74.3654L320.605 91.0098L322.279 87.91Z" fill="#0BA5EC"/>
<path d="M319.341 93.3319L288.52 76.6875L286.846 79.7872L317.667 96.4317L319.341 93.3319Z" fill="#0BA5EC"/>
<path d="M316.4 98.7616L285.578 82.1172L283.904 85.2169L314.726 101.861L316.4 98.7616Z" fill="#0BA5EC"/>
<path d="M313.478 104.176L282.656 87.5312L280.982 90.631L311.804 107.275L313.478 104.176Z" fill="#0BA5EC"/>
<path d="M310.548 109.621L279.727 92.9766L278.053 96.0763L308.874 112.721L310.548 109.621Z" fill="#0BA5EC"/>
<path d="M307.626 115.035L276.805 98.3906L275.131 101.49L305.953 118.135L307.626 115.035Z" fill="#0BA5EC"/>
<path d="M293.813 114.596L273.859 103.82L272.185 106.92L292.139 117.696L293.813 114.596Z" fill="#0BA5EC"/>
<path d="M219.414 78.3158C213.199 77.6797 207.311 75.2147 202.496 71.2325C197.681 67.2503 194.156 61.9298 192.365 55.9437C190.574 49.9577 190.598 43.575 192.435 37.6028C194.271 31.6306 197.837 26.3371 202.682 22.3917C207.527 18.4463 213.433 16.0262 219.654 15.4375C225.874 14.8487 232.13 16.1177 237.629 19.0841C243.128 22.0504 247.624 26.5808 250.548 32.1024C253.473 37.624 254.694 43.8888 254.058 50.1045C253.194 58.435 249.062 66.083 242.568 71.3714C236.073 76.6599 227.747 79.1572 219.414 78.3158Z" fill="#7A5AF8"/>
<path opacity="0.3" d="M224.854 75.5882C240.726 74.3669 252.603 60.5097 251.382 44.6372C250.161 28.7647 236.304 16.8876 220.431 18.1089C204.559 19.3302 192.681 33.1875 193.903 49.06C195.124 64.9325 208.981 76.8096 224.854 75.5882Z" fill="#D9D6FE"/>
<path d="M232.409 37.5339C229.086 35.1806 224.451 27.1365 224.451 27.0938L221.456 56.2464C221.527 55.5903 218.931 54.92 217.177 54.8201C212.998 54.378 209.475 56.3462 209.19 59.0989C208.905 61.8516 212.042 64.59 216.321 65.0179C220.6 65.4457 223.98 63.4775 224.28 60.6535C224.28 60.2256 223.98 59.7692 224.023 59.3842L226.319 36.9206C228.036 38.8962 230.143 40.494 232.509 41.613C235.661 43.0393 236.788 47.4179 236.788 47.4179C236.942 45.5357 236.623 43.6448 235.858 41.9181C235.093 40.1914 233.907 38.6841 232.409 37.5339Z" fill="white"/>
<path d="M158.602 0.00235971L90.7227 5.52344L94.8562 56.3442L162.736 50.8231L158.602 0.00235971Z" fill="#E0F2FE"/>
<path d="M155.584 3.5672L94.457 8.53906L98.0414 52.6074L159.168 47.6356L155.584 3.5672Z" fill="#B9E6FE"/>
<path opacity="0.5" d="M155.584 3.5672L94.457 8.53906L98.0414 52.6074L159.168 47.6356L155.584 3.5672Z" fill="#B9E6FE"/>
<path d="M158.677 41.6456L159.162 47.6358L98.033 52.6135L96.293 31.1911L108.003 19.125L128.213 35.855L137.54 27.8252L158.677 41.6456Z" fill="#12B76A"/>
<path d="M146.338 15.9751C146.417 16.9477 146.205 17.9219 145.73 18.7743C145.255 19.6268 144.538 20.3193 143.669 20.7643C142.801 21.2092 141.82 21.3868 140.851 21.2743C139.881 21.1619 138.967 20.7646 138.223 20.1326C137.48 19.5007 136.94 18.6625 136.673 17.7239C136.406 16.7854 136.423 15.7887 136.722 14.8598C137.021 13.9309 137.589 13.1115 138.354 12.5053C139.118 11.8991 140.045 11.5331 141.018 11.4538C141.664 11.4011 142.315 11.4763 142.932 11.675C143.549 11.8738 144.121 12.1922 144.615 12.612C145.109 13.0319 145.515 13.545 145.811 14.1221C146.107 14.6991 146.286 15.3288 146.338 15.9751Z" fill="#FDB022"/>
<path opacity="0.3" d="M146.338 15.9751C146.417 16.9477 146.205 17.9219 145.73 18.7743C145.255 19.6268 144.538 20.3193 143.669 20.7643C142.801 21.2092 141.82 21.3867 140.851 21.2743C139.881 21.1619 138.967 20.7646 138.223 20.1326C137.48 19.5007 136.94 18.6625 136.673 17.7239C136.406 16.7854 136.423 15.7887 136.722 14.8598C137.021 13.9309 137.589 13.1115 138.354 12.5053C139.118 11.8991 140.045 11.5331 141.018 11.4538C141.664 11.4011 142.315 11.4763 142.932 11.675C143.549 11.8738 144.121 12.1922 144.615 12.612C145.109 13.0319 145.515 13.545 145.811 14.1221C146.107 14.6991 146.286 15.3288 146.338 15.9751Z" fill="#FDB022"/>
<path d="M30.4376 65.8793L27.8133 64.2677C27.348 63.9801 26.8217 63.8057 26.2767 63.7586C25.7317 63.7116 25.1833 63.7931 24.6756 63.9967L13.0231 68.9173C12.5332 69.1163 12.1035 69.4391 11.776 69.8542C11.4485 70.2692 11.2344 70.7622 11.1547 71.2849L10.7268 74.1374C10.6544 74.6589 10.4445 75.1517 10.1186 75.5653C9.79278 75.9788 9.36274 76.2982 8.87266 76.4907L1.91254 79.3432C1.515 79.5046 1.15577 79.7477 0.858081 80.0567C0.560389 80.3658 0.330859 80.7338 0.184334 81.1371C0.0378081 81.5404 -0.0224453 81.9699 0.00745554 82.3979C0.0373563 82.826 0.156753 83.243 0.357926 83.6219L18.8992 121.617C19.2913 122.405 19.9647 123.016 20.7862 123.331C21.6078 123.645 22.5174 123.639 23.3349 123.315L78.4739 100.295C78.8741 100.137 79.2364 99.8956 79.5368 99.5875C79.8373 99.2794 80.0693 98.9112 80.2174 98.5072C80.3656 98.1031 80.4266 97.6723 80.3965 97.2429C80.3664 96.8136 80.2459 96.3955 80.0428 96.0161L61.5015 58.0349C61.1119 57.245 60.4395 56.6304 59.6177 56.3133C58.796 55.9963 57.885 55.9999 57.0658 56.3234L33.5754 66.1503C33.0677 66.3539 32.5192 66.4354 31.9743 66.3884C31.4293 66.3413 30.9029 66.167 30.4376 65.8793Z" fill="#FF5D0A"/>
<path d="M64.1123 57.7348L13.6086 78.9005C12.5785 79.3459 11.748 80.1542 11.2747 81.1718C10.8014 82.1893 10.7184 83.3453 11.0413 84.4201L22.0948 119.406C22.2505 119.907 22.5109 120.37 22.8587 120.763C23.2065 121.157 23.6339 121.471 24.1125 121.687C24.5912 121.903 25.1102 122.015 25.6352 122.015C26.1602 122.015 26.6792 121.904 27.158 121.688L77.6759 100.551C78.7019 100.101 79.5286 99.2916 80.0011 98.2757C80.4737 97.2597 80.5597 96.1063 80.2432 95.0314L69.1755 60.0454C69.0249 59.5401 68.7679 59.0729 68.4218 58.6752C68.0757 58.2775 67.6485 57.9585 67.1689 57.7396C66.6892 57.5208 66.1683 57.4071 65.6411 57.4063C65.1139 57.4054 64.5926 57.5175 64.1123 57.7348Z" fill="#FF5D0A"/>
<path opacity="0.5" d="M64.1123 57.7348L13.6086 78.9005C12.5785 79.3459 11.748 80.1542 11.2747 81.1718C10.8014 82.1893 10.7184 83.3453 11.0413 84.4201L22.0948 119.406C22.2505 119.907 22.5109 120.37 22.8587 120.763C23.2065 121.157 23.6339 121.471 24.1125 121.687C24.5912 121.903 25.1102 122.015 25.6352 122.015C26.1602 122.015 26.6792 121.904 27.158 121.688L77.6759 100.551C78.7019 100.101 79.5286 99.2916 80.0011 98.2757C80.4737 97.2597 80.5597 96.1063 80.2432 95.0314L69.1755 60.0454C69.0249 59.5401 68.7679 59.0729 68.4218 58.6752C68.0757 58.2775 67.6485 57.9585 67.1689 57.7396C66.6892 57.5208 66.1683 57.4071 65.6411 57.4063C65.1139 57.4054 64.5926 57.5175 64.1123 57.7348Z" fill="white"/>
<path d="M247.357 141.653C247.984 138.709 248.299 135.706 248.298 132.696C248.298 127.111 247.198 121.58 245.061 116.42C242.924 111.26 239.791 106.572 235.841 102.622C231.892 98.6728 227.203 95.54 222.043 93.4027C216.883 91.2653 211.353 90.1652 205.767 90.1652C203.131 90.1679 200.501 90.4114 197.909 90.8926C196.825 90.6929 195.727 90.8926 194.6 90.7642C190.591 82.0542 184.154 74.6864 176.061 69.5455C167.967 64.4046 158.562 61.7091 148.974 61.7827H133.285C126.719 61.7508 120.211 63.0147 114.134 65.5019C108.057 67.9891 102.53 71.6509 97.8707 76.2774C93.2111 80.9039 89.5101 86.4042 86.9795 92.4633C84.449 98.5224 83.1388 105.021 83.1238 111.588C83.1238 111.958 83.1238 112.144 83.1238 112.515C72.7483 114.347 63.4409 120.013 57.0486 128.389C50.6562 136.764 47.6462 147.236 48.6158 157.728C49.5854 168.219 54.4637 177.962 62.2828 185.024C70.1018 192.086 80.29 195.951 90.8256 195.851H244.861C252.048 196.178 259.071 193.637 264.384 188.786C269.698 183.935 272.866 177.173 273.194 169.986C273.521 162.798 270.98 155.776 266.129 150.462C261.278 145.149 254.516 141.98 247.329 141.653H247.357Z" fill="#FF5D0A"/>
<path d="M247.357 141.653C247.984 138.709 248.299 135.706 248.298 132.696C248.298 127.111 247.198 121.58 245.061 116.42C242.924 111.26 239.791 106.572 235.841 102.622C231.892 98.6729 227.203 95.54 222.043 93.4027C216.883 91.2653 211.353 90.1652 205.767 90.1652C203.131 90.1679 200.501 90.4114 197.909 90.8926C196.825 90.6929 195.727 90.8926 194.6 90.7642C190.591 82.0542 184.154 74.6864 176.061 69.5455C167.967 64.4046 158.562 61.7091 148.974 61.7827H133.285C126.719 61.7508 120.211 63.0147 114.134 65.5019C108.057 67.9891 102.53 71.6509 97.8707 76.2774C93.2111 80.9039 89.5101 86.4042 86.9795 92.4633C84.449 98.5224 83.1388 105.021 83.1238 111.588C83.1238 111.958 83.1238 112.144 83.1238 112.515C72.7483 114.347 63.4409 120.013 57.0486 128.389C50.6562 136.764 47.6462 147.236 48.6158 157.728C49.5854 168.219 54.4637 177.963 62.2828 185.024C70.1018 192.086 80.29 195.951 90.8256 195.851H244.861C252.048 196.178 259.071 193.637 264.384 188.786C269.698 183.935 272.866 177.173 273.194 169.986C273.521 162.798 270.98 155.776 266.129 150.462C261.278 145.149 254.516 141.98 247.329 141.653H247.357Z" fill="#E4E7EC"/>
<path d="M247.356 141.653C247.982 138.709 248.298 135.706 248.297 132.696C248.297 127.111 247.197 121.58 245.06 116.42C242.922 111.26 239.789 106.572 235.84 102.622C231.891 98.6728 227.202 95.54 222.042 93.4027C216.882 91.2653 211.351 90.1652 205.766 90.1652C203.13 90.1679 200.499 90.4114 197.907 90.8926C196.824 90.6929 195.725 90.8926 194.599 90.7642C190.59 82.0542 184.153 74.6864 176.059 69.5455C167.966 64.4046 158.561 61.7091 148.973 61.7827C142.406 61.7508 135.898 63.0147 129.821 65.5019C123.744 67.9891 118.218 71.6509 113.558 76.2774C108.899 80.9039 105.198 86.4042 102.667 92.4633C100.137 98.5224 98.8263 105.021 98.8113 111.588C98.8113 111.958 98.8113 112.144 98.8113 112.515C88.4358 114.347 79.1284 120.013 72.7361 128.389C66.3437 136.764 63.3337 147.236 64.3033 157.728C65.2729 168.219 70.1512 177.962 77.9702 185.024C85.7893 192.086 95.9775 195.951 106.513 195.851H244.86C252.047 196.178 259.07 193.637 264.383 188.786C269.696 183.935 272.865 177.173 273.192 169.986C273.52 162.798 270.978 155.776 266.128 150.462C261.277 145.149 254.514 141.98 247.327 141.653H247.356Z" fill="#F2F4F7"/>
<path d="M288.988 265.739H240.966C222.06 265.717 203.934 258.196 190.565 244.827C177.196 231.458 169.676 213.333 169.653 194.427V180.164H155.391V194.427C155.417 217.114 164.441 238.866 180.484 254.908C196.527 270.951 218.278 279.975 240.966 280.002H288.988V265.739Z" fill="#FF5D0A"/>
<path d="M162.354 170.664L149.988 183.015H174.705L162.354 170.664Z" fill="#FF5D0A"/>
</g>
<defs>
<clipPath id="clip0_1937_162054">
<rect width="336.148" height="280" fill="white"/>
</clipPath>
</defs>
</svg>
