<svg xmlns="http://www.w3.org/2000/svg" viewBox="0 0 750 500"><g id="freepik--background-complete--inject-92"><path d="M593.9,419.34s.18-.17.54-.47l1.6-1.35,2.62-2.17,1.67-1.38c.59-.5,1.2-1.06,1.85-1.64l4.33-3.88c1.56-1.44,3.19-3.07,5-4.79S615.07,400,617,398s3.89-4.27,6-6.61,4.08-4.91,6.25-7.53c1.1-1.31,2.09-2.73,3.16-4.14s2.16-2.85,3.23-4.34,2.09-3.05,3.16-4.61c.54-.79,1.09-1.57,1.62-2.37s1-1.64,1.55-2.46c1-1.66,2.12-3.32,3.15-5l3-5.3c1.06-1.76,2-3.64,3-5.5s2-3.74,2.9-5.71l2.81-5.91c.86-2,1.74-4.07,2.62-6.14a206.64,206.64,0,0,0,14.26-53.54q.39-3.33.78-6.62c.17-2.2.33-4.37.5-6.53s.23-4.28.32-6.39.2-4.2.16-6.26,0-4.1,0-6.11-.16-4-.23-5.94q-.06-1.47-.12-2.91c0-1-.15-1.91-.22-2.86q-.24-2.84-.46-5.57c-.18-1.83-.43-3.62-.63-5.37s-.39-3.49-.69-5.17c-.58-3.35-1-6.6-1.68-9.65s-1.16-6-1.88-8.69-1.25-5.32-2-7.69-1.3-4.61-1.94-6.64-1.27-3.85-1.82-5.51c-.28-.83-.53-1.61-.79-2.34s-.52-1.4-.76-2c-.47-1.26-.87-2.32-1.19-3.19l-.73-2c-.16-.44-.23-.68-.23-.68s.11.22.28.66l.77,1.94c.34.87.76,1.93,1.24,3.17.25.63.51,1.31.79,2s.52,1.51.81,2.33l1.87,5.51c.65,2,1.27,4.25,2,6.63s1.32,5,2,7.69,1.28,5.64,1.93,8.7,1.12,6.3,1.71,9.66c.31,1.68.47,3.42.7,5.17s.46,3.55.65,5.38.31,3.7.47,5.59c.08.95.17,1.9.23,2.86s.09,1.94.13,2.91c.08,2,.19,4,.24,6s0,4.05,0,6.12-.09,4.16-.15,6.27-.11,4.26-.31,6.42-.33,4.33-.5,6.54-.52,4.4-.78,6.64a205.14,205.14,0,0,1-14.29,53.67c-.89,2.07-1.76,4.12-2.63,6.15l-2.82,5.92c-.9,2-1.94,3.84-2.92,5.72s-1.92,3.74-3,5.51l-3.07,5.3c-1,1.72-2.13,3.38-3.17,5l-1.56,2.47c-.52.8-1.08,1.58-1.62,2.37L636,375.6c-1.08,1.49-2.18,2.92-3.24,4.34s-2.08,2.83-3.19,4.13c-2.18,2.63-4.16,5.24-6.28,7.54s-4,4.59-6,6.59-3.75,4-5.58,5.67-3.44,3.33-5,4.77l-4.37,3.84c-.66.57-1.26,1.13-1.86,1.63l-1.69,1.36-2.65,2.13-1.64,1.31C594.1,419.2,593.9,419.34,593.9,419.34Z" style="fill:#e0e0e0"></path><path d="M635.09,380.2c-8.49-6.42-11.58-18.26-9.74-28.74s7.85-19.78,14.72-27.91c6.29,8,10.13,19.54,8.67,29.6s-7.19,18.38-13.65,27.05" style="fill:#e0e0e0"></path><path d="M635.05,380.21c-1.47-10.54,4.73-21.1,13.44-27.21s19.54-8.44,30.15-9.33c-1.2,10.09-6.67,21-14.8,27.06s-18.08,7.92-28.79,9.48" style="fill:#ebebeb"></path><path d="M664.07,324.6c-8.09-4.17-12.41-13.69-12.39-22.79S655.41,284,660,276.16c6.46,5.8,11.38,15,11.62,23.66s-3.38,16.53-7.56,24.78" style="fill:#e0e0e0"></path><path d="M664,324.61c-2.76-8.66.92-18.45,7.36-24.87s15.23-9.95,24-12.25c.46,8.67-2.56,18.64-8.53,24.95s-14.08,9.3-22.87,12.17" style="fill:#ebebeb"></path><path d="M676.4,268.76c-7.31-1-13.2-7.1-15.66-14.06s-2-14.63-.59-21.88c6.51,2.68,12.76,8.37,15.3,14.94s1.91,13.56.95,21" style="fill:#e0e0e0"></path><path d="M676.38,268.78c-4.47-5.88-4.32-14.36-1.13-21s8.94-11.75,15-15.89c2.71,6.5,3.11,14.95.26,21.39s-8.24,10.93-14.18,15.52" style="fill:#ebebeb"></path><path d="M673.63,216.9c-6.52.51-12.76-3.69-16.18-9.26s-4.45-12.29-4.6-18.83c6.14,1.11,12.62,4.87,16,10.09s4.18,11.38,4.74,18" style="fill:#e0e0e0"></path><path d="M673.61,216.92c-5-4.25-6.41-11.63-4.89-18s5.55-11.84,10.07-16.56c3.56,5.12,5.48,12.36,4.21,18.47s-5.1,11-9.39,16.08" style="fill:#ebebeb"></path><path d="M663.59,178.62s7.21-24.06-17.25-28C646.34,150.66,639.92,172.91,663.59,178.62Z" style="fill:#ebebeb"></path><polygon points="381.91 232.43 381.91 232.44 381.94 232.44 381.91 232.43" style="fill:none"></polygon><polygon points="381.82 232.43 381.9 232.44 381.84 232.41 381.82 232.43" style="fill:none"></polygon><polygon points="381.73 232.37 381.67 232.44 381.81 232.44 381.73 232.37" style="fill:none"></polygon><polygon points="381.61 232.36 381.63 232.34 381.6 232.34 381.61 232.36" style="fill:none"></polygon><polygon points="381.59 232.18 381.59 232.19 381.61 232.21 381.59 232.18" style="fill:none"></polygon><polygon points="381.88 232.35 381.87 232.37 381.89 232.39 381.88 232.35" style="fill:none"></polygon><polygon points="381.56 232.39 381.55 232.32 381.18 232.21 381.51 232.42 381.56 232.39" style="fill:none"></polygon><polygon points="381.57 232.33 381.56 232.39 381.61 232.36 381.57 232.33" style="fill:none"></polygon><polygon points="381.86 232.33 381.81 232.34 381.84 232.36 381.86 232.33" style="fill:none"></polygon><polygon points="381.82 232.4 381.8 232.39 381.81 232.42 381.82 232.4" style="fill:none"></polygon><path d="M351.05,20.11l15.33,106.66.43-.07,14.92,104.53,14.78-104.55.23,0L411.46,21.78a229.47,229.47,0,0,0-60.41-1.67Z" style="fill:#f5f5f5"></path><path d="M520.36,71.38a227.71,227.71,0,0,0-51.06-32.1l-43.54,95.95.23.1L382,232.1Z" style="fill:#f5f5f5"></path><path d="M279.57,202.47h0l101.36,29.68h-.4l1,.29h0l0,0h0l.07,0v0l0,0h0v0l0,0,.06-.07.08.06h-.14l.07.05.06,0v0h0l.06,0v0l0,0h0l-.07,0,.41.18-.33-.21,101.94,29.84-.06.22L597,295.76a228,228,0,0,0,5.42-49.5c0-4.74-.17-9.45-.45-14.12H488.21v.18L382,232.43h0l0,0v-.09l.47-.14-.38.25.94-.28h-.46L589.57,170.8A227.06,227.06,0,0,0,561.42,116l-179,116.12h-.37l.15-.18-.27.18h0v0l0,0,.1-.57-.2.43,0,.14-.12.09-.05-.09h-.08l0-.15-.17-.36.07.47,0,0h0l-.21-.14.11.13h-.35L192.43,110.67a227,227,0,0,0-31,57.22Zm102.34,30h0Zm-.09,0,0,0,.06,0Zm.06-.08v0l0,0Zm0,0,0,0,0,0Zm0,.07v0Zm-.21,0v0h0Zm0-.18,0,0,0,0Zm0,.15,0,0-.05,0Zm0,0v.07l-.05,0-.33-.21Z" style="fill:#f5f5f5"></path><path d="M311.91,151.81v0l69.55,80.26-44.11-96.66,0,0L291.33,34.75a227,227,0,0,0-54.27,30.73Z" style="fill:#f5f5f5"></path><path d="M471.32,290.12l-.06.1-89.1-57.37L451.64,313l-.17.14,82.66,95.57A228.16,228.16,0,0,0,574,356.4Z" style="fill:#f5f5f5"></path><polygon points="381.88 232.66 381.86 232.65 381.87 232.67 381.88 232.66" style="fill:#f5f5f5"></polygon><polygon points="381.62 232.46 381.61 232.49 381.57 232.46 381.58 232.54 381.59 232.53 381.59 232.54 381.66 232.52 381.62 232.5 381.65 232.47 381.67 232.47 381.66 232.45 381.67 232.44 381.57 232.44 381.62 232.46" style="fill:#f5f5f5"></polygon><polygon points="381.54 232.56 381.55 232.45 381.53 232.44 381.11 232.68 381.54 232.56" style="fill:#f5f5f5"></polygon><path d="M381.29,232.88l-88.87,57.66-.21-.32L179.8,363a228.26,228.26,0,0,0,43.69,52.86l102-118.17Z" style="fill:#f5f5f5"></path><path d="M279.63,262.61l101.86-30.17L148,232.69c-.27,4.49-.42,9-.42,13.57a228,228,0,0,0,6.34,53.46l125.71-37.1Z" style="fill:#f5f5f5"></path><path d="M381.44,233.24,281.22,453.49A225.93,225.93,0,0,0,347.68,472Z" style="fill:#f5f5f5"></path><polygon points="381.9 232.49 381.87 232.51 381.89 232.53 381.9 232.49" style="fill:#f5f5f5"></polygon><path d="M382,233.22,415.79,470A225.8,225.8,0,0,0,480,448Z" style="fill:#f5f5f5"></path><polygon points="381.62 232.84 381.74 233.64 381.85 232.87 381.73 232.61 381.62 232.84" style="fill:#f5f5f5"></polygon><polygon points="381.86 232.52 381.84 232.52 381.86 232.53 381.86 232.52" style="fill:#f5f5f5"></polygon><path d="M162.25,419.34s-.2-.14-.57-.43l-1.63-1.31-2.66-2.13-1.68-1.36c-.6-.5-1.21-1.06-1.87-1.63l-4.36-3.84c-1.57-1.44-3.21-3.06-5-4.77s-3.62-3.65-5.58-5.67-3.92-4.26-6-6.59-4.11-4.91-6.29-7.54c-1.1-1.3-2.11-2.72-3.18-4.13s-2.17-2.85-3.24-4.34L117,371c-.53-.79-1.09-1.57-1.62-2.37s-1-1.64-1.56-2.47c-1-1.66-2.13-3.32-3.17-5l-3.06-5.3c-1.07-1.77-2-3.65-3-5.51s-2-3.75-2.91-5.72l-2.82-5.92q-1.3-3-2.63-6.15a205.68,205.68,0,0,1-14.3-53.67l-.77-6.64q-.25-3.31-.5-6.54c-.2-2.16-.23-4.3-.31-6.42s-.2-4.2-.15-6.27,0-4.11,0-6.12.16-4,.24-6c0-1,.08-1.94.13-2.91s.15-1.91.22-2.86c.16-1.89.32-3.76.47-5.59s.44-3.61.65-5.38.4-3.49.71-5.17c.59-3.36,1-6.61,1.71-9.66s1.19-6,1.93-8.7,1.27-5.32,2-7.69,1.33-4.61,2-6.63,1.31-3.85,1.88-5.51c.28-.82.54-1.61.81-2.33l.78-2c.49-1.24.9-2.3,1.24-3.17s.59-1.49.77-1.94.28-.66.28-.66-.07.24-.23.68l-.72,2c-.32.87-.72,1.93-1.19,3.19l-.77,2c-.26.73-.5,1.51-.78,2.34l-1.83,5.51c-.63,2-1.24,4.26-1.93,6.64s-1.29,5-2,7.69-1.26,5.64-1.89,8.69-1.1,6.3-1.67,9.65c-.31,1.68-.46,3.41-.69,5.17s-.45,3.54-.64,5.37l-.45,5.57c-.07.95-.17,1.9-.22,2.86s-.08,1.93-.13,2.91c-.07,2-.18,3.93-.22,5.94l0,6.11c0,2.06.09,4.14.16,6.26s.11,4.24.32,6.39l.5,6.53q.39,3.28.78,6.62a205.58,205.58,0,0,0,14.26,53.54l2.62,6.14,2.8,5.91c.89,2,1.94,3.83,2.91,5.71s1.91,3.74,3,5.5l3.05,5.3c1,1.72,2.12,3.38,3.16,5,.52.82,1,1.64,1.55,2.46s1.08,1.58,1.61,2.37l3.17,4.61c1.07,1.49,2.17,2.92,3.22,4.34s2.07,2.83,3.17,4.14c2.16,2.62,4.14,5.23,6.25,7.53s4,4.61,6,6.61,3.73,4,5.54,5.69,3.42,3.35,5,4.79l4.33,3.88c.65.58,1.25,1.14,1.84,1.64l1.67,1.38,2.62,2.17,1.61,1.35C162.07,419.17,162.25,419.34,162.25,419.34Z" style="fill:#e0e0e0"></path><path d="M121.07,380.2c8.49-6.42,11.57-18.26,9.73-28.74s-7.84-19.78-14.72-27.91c-6.28,8-10.12,19.54-8.67,29.6s7.19,18.38,13.66,27.05" style="fill:#e0e0e0"></path><path d="M121.11,380.21c1.46-10.54-4.73-21.1-13.45-27.21s-19.53-8.44-30.14-9.33c1.19,10.09,6.66,21,14.8,27.06s18.08,7.92,28.79,9.48" style="fill:#ebebeb"></path><path d="M92.09,324.6c8.09-4.17,12.41-13.69,12.38-22.79s-3.72-17.81-8.33-25.65c-6.46,5.8-11.37,15-11.61,23.66s3.38,16.53,7.56,24.78" style="fill:#e0e0e0"></path><path d="M92.12,324.61c2.77-8.66-.91-18.45-7.36-24.87s-15.23-9.95-24-12.25c-.46,8.67,2.56,18.64,8.52,24.95s14.08,9.3,22.87,12.17" style="fill:#ebebeb"></path><path d="M79.76,268.76c7.31-1,13.2-7.1,15.65-14.06s2-14.63.6-21.88c-6.51,2.68-12.77,8.37-15.31,14.94s-1.9,13.56-.94,21" style="fill:#e0e0e0"></path><path d="M79.78,268.78c4.47-5.88,4.31-14.36,1.12-21S72,236,65.86,231.87c-2.71,6.5-3.11,14.95-.26,21.39s8.24,10.93,14.18,15.52" style="fill:#ebebeb"></path><path d="M82.53,216.9c6.52.51,12.76-3.69,16.18-9.26s4.44-12.29,4.59-18.83c-6.14,1.11-12.61,4.87-16,10.09s-4.17,11.38-4.73,18" style="fill:#e0e0e0"></path><path d="M82.54,216.92c5-4.25,6.42-11.63,4.9-18s-5.56-11.84-10.07-16.56c-3.56,5.12-5.48,12.36-4.21,18.47s5.09,11,9.38,16.08" style="fill:#ebebeb"></path><path d="M92.56,178.62s-7.21-24.06,17.25-28C109.81,150.66,116.24,172.91,92.56,178.62Z" style="fill:#ebebeb"></path></g><g id="freepik--Starts--inject-92"><path d="M451.42,171.11l.32,1a1.48,1.48,0,0,0,1,1l1,.32-1,.36a1.45,1.45,0,0,0-.91.9l-.37,1.06-.41-1.11a1.47,1.47,0,0,0-.91-.88l-1-.33,1-.33a1.46,1.46,0,0,0,.89-.86Z" style="fill:#FF5D0A"></path><path d="M418.09,124l.33,1a1.44,1.44,0,0,0,1,1l1,.32-1,.36a1.48,1.48,0,0,0-.91.9l-.37,1.06-.4-1.1a1.48,1.48,0,0,0-.92-.89l-1-.33,1-.33a1.44,1.44,0,0,0,.89-.85Z" style="fill:#FF5D0A"></path><path d="M304.53,328l.32,1a1.44,1.44,0,0,0,1,1l1,.32-1,.36a1.48,1.48,0,0,0-.91.9l-.36,1.06-.41-1.1a1.48,1.48,0,0,0-.92-.89l-1-.33,1-.33a1.47,1.47,0,0,0,.9-.86Z" style="fill:#FF5D0A"></path><path d="M418.09,295.09l.33,1a1.44,1.44,0,0,0,1,1l1,.32-1,.36a1.48,1.48,0,0,0-.91.9l-.37,1.06-.4-1.1a1.48,1.48,0,0,0-.92-.89l-1-.33,1-.33a1.44,1.44,0,0,0,.89-.85Z" style="fill:#FF5D0A"></path><path d="M442,130.53l1.32,4.23a6,6,0,0,0,3.94,4l4.25,1.32-4.27,1.46a6,6,0,0,0-3.74,3.71l-1.5,4.34L440.28,145a6,6,0,0,0-3.75-3.62L432.44,140l4-1.36a6,6,0,0,0,3.66-3.51Z" style="fill:#FF5D0A"></path><path d="M344.26,374.21l1.31,4.24a6,6,0,0,0,3.95,3.95l4.24,1.32-4.26,1.45a6,6,0,0,0-3.74,3.72l-1.5,4.34-1.68-4.53a6,6,0,0,0-3.74-3.63l-4.09-1.35,4-1.36a6,6,0,0,0,3.67-3.51Z" style="fill:#FF5D0A"></path><path d="M326.77,169.43l.54,1.75a2.5,2.5,0,0,0,1.63,1.63l1.75.54-1.76.6a2.5,2.5,0,0,0-1.54,1.54l-.62,1.79-.69-1.87a2.51,2.51,0,0,0-1.55-1.5l-1.69-.56,1.67-.56a2.49,2.49,0,0,0,1.51-1.45Z" style="fill:#FF5D0A"></path><path d="M372.87,365.48l.54,1.75a2.47,2.47,0,0,0,1.63,1.62l1.75.55L375,370a2.48,2.48,0,0,0-1.54,1.54l-.62,1.79-.69-1.88a2.49,2.49,0,0,0-1.55-1.49l-1.69-.56,1.67-.56a2.49,2.49,0,0,0,1.51-1.45Z" style="fill:#FF5D0A"></path></g><g id="freepik--Medal--inject-92"><path d="M350.31,257.55c0,1-24.64,83.68-24.64,83.68l21.18-9.47,11.6,25.57,14.91-98.49Z" style="fill:#FF5D0A"></path><polygon points="368.34 261.05 373.36 355.88 391.81 329.87 415.64 346.92 391.81 253.78 368.34 261.05" style="fill:#FF5D0A"></polygon><g style="opacity:0.5"><path d="M348.71,263.82a9.1,9.1,0,0,0,8.12,6.37c2.17.09,4.56-.58,6.39.6s2.6,3.93,4.75,4.22c2.52.36,4-3,6.38-3.8,3.25-1.06,6.66,2.86,9.86,1.65,2.06-.78,3-3.43,5.18-4a7.19,7.19,0,0,1,2.88.1,5.65,5.65,0,0,0,3.26-.62l-1.17-4.57-2-8.87H349.52Z"></path></g><path d="M373.76,190a28.19,28.19,0,0,1,6.19,1.24,2.6,2.6,0,0,1,.19-1q2.72-7.28,5.42-14.53l.13-.12a4.67,4.67,0,0,1-1.79-1.8,5.65,5.65,0,0,0-4.87-2.6c-1,4.12-2.19,9.76-3.07,13.27A15.84,15.84,0,0,1,373.76,190Z" style="fill:#FF5D0A"></path><path d="M347.66,234.16a28.59,28.59,0,0,1-3.22-6.42,2.34,2.34,0,0,1-1,.58l-.43.15a6,6,0,0,1-.84.45,26.26,26.26,0,0,1-2.78.89l-3.42.95c-2.43.66-4.64,1.23-6.24,1.61a13.84,13.84,0,0,1-2.62.53,13.34,13.34,0,0,1,2.52-.88l2.18-.64-5,1.11c-.65,2.84-2.66,5.88-.89,8.07a3,3,0,0,0,.65.58c6.37-2.36,14.54-5.41,19.89-6.82A3.55,3.55,0,0,1,347.66,234.16Z" style="fill:#FF5D0A"></path><path d="M364.06,189.27c0,.28,0,.52,0,.74s0,.52,0,.77a28.57,28.57,0,0,1,7-.91c0-.13,0-.26,0-.39l.33-5.26c0-.35,0-.71,0-1.08.07-3.78.22-6.91.35-7.52-1.06-1.25-2.07-3.87-4.21-4.15-1.77-.23-2.69,0-3.44.72C364.17,177.45,364,184.1,364.06,189.27Z" style="fill:#FF5D0A"></path><path d="M336.43,207.7q.66.26,1.32.48c-1.87-.74-3.79-1.54-5.63-2.33C333.39,206.44,334.84,207.08,336.43,207.7Z" style="fill:#FF5D0A"></path><path d="M342.86,216.89A28.41,28.41,0,0,1,344,210.4c-.56-.17-1.14-.36-1.73-.56a29.44,29.44,0,0,1-6-1.66,56.45,56.45,0,0,1-6.35-3c-1.1-.59-1.88-1-2.25-1.29l-1.2-.51c-.78,1.27-2,2.31-2.85,3.58a4.59,4.59,0,0,0-.71,2.41c6.51,1.78,14.37,4.13,19.84,7.39Z" style="fill:#FF5D0A"></path><path d="M345.06,207.24a28,28,0,0,1,3-5.33l-.43-.28a50.7,50.7,0,0,1-9-7.63l-.07-.08c-1.22-1-2.38-2.07-3.41-3a3,3,0,0,1-.69,1.17c-1.55,1.55-4.46.55-6.17,1.92a3.09,3.09,0,0,0-1.09,2,170.94,170.94,0,0,1,15.77,9.92C343.79,206.44,344.52,206.89,345.06,207.24Z" style="fill:#FF5D0A"></path><path d="M347.78,197.39c.7,1,1.32,1.86,1.78,2.54a28.49,28.49,0,0,1,5.31-4.86c-.6-.76-1.34-1.75-2.16-2.85-.73-.84-1.56-1.84-2.43-2.93-1.28-1.61-2.38-3.1-3.14-4.21a8.59,8.59,0,0,1-1.13-1.86s.31.26.74.79c-.7-1-1.36-1.85-1.94-2.61a5.33,5.33,0,0,1-1.92,2.27c-1.26.75-2.93.71-4.36,1a107.42,107.42,0,0,1,8,10.92Z" style="fill:#FF5D0A"></path><path d="M356.64,193.91a27.86,27.86,0,0,1,5.18-2.43c-.07-.21-.13-.43-.2-.68-.39-1.35-.86-3.23-1.27-5.34s-.68-4-.83-5.42a17.13,17.13,0,0,1-.14-2.17l-.06-.39a5.07,5.07,0,0,1-3.72-1.21c-1.65-1.48-4.45-1.29-6.61-.36,2.28,5.49,5.69,13,7.57,17.81C356.59,193.78,356.61,193.84,356.64,193.91Z" style="fill:#FF5D0A"></path><path d="M349.31,200.22l-.07-.08.06.1Z" style="fill:#FF5D0A"></path><path d="M343.94,226.17a28.91,28.91,0,0,1-1.09-6.88h-.16c-2,.11-4.34.08-6.8,0-.75,0-1.52,0-2.34,0-2.38,0-4.53-.19-6.08-.34-.71-.07-1.28-.14-1.7-.2l-1.52-.09c-.34.52-.68,1-1,1.58-.87,1.53-1.42,3.45-.6,5l.09.13q9.93.24,19.84.58A3.54,3.54,0,0,1,343.94,226.17Z" style="fill:#FF5D0A"></path><path d="M353.23,240.88l.42-.27a28.8,28.8,0,0,1-5-5.13,2.4,2.4,0,0,1-.78.84,1.86,1.86,0,0,1-.56.77c-1.28,1-3.08,2.11-5.09,3.43s-3.83,2.44-5.17,3.25a12,12,0,0,1-2.22,1.22,12.51,12.51,0,0,1,2-1.53c.74-.5,1.64-1.12,2.65-1.78-1.94,1.17-3.89,2.34-5.64,3.41.33,1.48-.19,3.2.49,4.59s2.08,1.8,3.64,2.08l11.9-8.84A14.63,14.63,0,0,1,353.23,240.88Z" style="fill:#FF5D0A"></path><path d="M407.57,245.48l1.63,1.28a1,1,0,0,1,.1-.11l-.53-.35Z" style="fill:#FF5D0A"></path><path d="M392.72,236.93a28.6,28.6,0,0,1-5.09,4.61,16.88,16.88,0,0,1,1.47,1.72,1.67,1.67,0,0,1,.16.12,10.66,10.66,0,0,1,2,2.76l2.06,3.51.06.12c1.34,2.23,2.68,4.55,3.86,6.57a3.28,3.28,0,0,1,.59-.89c2.08-2.17,6.3-.06,8.5-2.09a3.38,3.38,0,0,0,.56-.7c-4.05-4.41-9.45-10.59-12.89-14.2A9.54,9.54,0,0,1,392.72,236.93Zm1.59,4.74a35.49,35.49,0,0,1,2.48,3.57,37.63,37.63,0,0,1,2.47,3.58,12.36,12.36,0,0,1-2.9-3.28A12.8,12.8,0,0,1,394.31,241.67Z" style="fill:#FF5D0A"></path><path d="M372,175.8a.46.46,0,0,1-.07-.07,4.58,4.58,0,0,1,0,.49Z" style="fill:#FF5D0A"></path><path d="M399.5,221.59a28.31,28.31,0,0,1-1.37,6l.78.38,2.76,1.44a18.26,18.26,0,0,1-2.68-1.66,84.58,84.58,0,0,1,8.45,4.24c2,1.09,3.9,2.12,5.33,2.93l.93.39a4.05,4.05,0,0,1,.2-1.38c.78-2.25,3.66-3.43,4.65-5.41C412.51,226.31,404.75,223.56,399.5,221.59Z" style="fill:#FF5D0A"></path><path d="M394.06,235.29c.55.43,1.25,1,2,1.54l.27.19c1.65,1.11,3.89,2.67,6.35,4.42s4.67,3.37,6.26,4.55l.6.46c1-.72,2.2-1.17,3.24-1.79-5.14-4.5-11.21-10.72-15.83-14.26A29,29,0,0,1,394.06,235.29Z" style="fill:#FF5D0A"></path><path d="M361.5,245.46a5.08,5.08,0,0,0-.31-.57,28.28,28.28,0,0,1-5.21-2.63l-.14.18c-.37.45-.79.93-1.25,1.44-.82,1-1.94,2.29-3.23,3.68s-2.67,2.75-3.63,3.66a8.29,8.29,0,0,1-1.64,1.37s.09-.19.32-.46c-.82.82-1.59,1.62-2.29,2.37,1.1,2.29,0,5.63,1.88,7.48a3.24,3.24,0,0,0,1.17.75c4-5.37,9.45-12.32,13.33-16.63A1.66,1.66,0,0,1,361.5,245.46Z" style="fill:#FF5D0A"></path><path d="M372.9,246.68a2.37,2.37,0,0,1,.45,1.31,6.16,6.16,0,0,1,.2,3.06c-.15,1.21-.32,2.51-.49,3.87-.24,1.81-.48,3.5-.69,5-.16,1.91-.31,3.79-.48,5.49a13.4,13.4,0,0,0,3.46,2.35c1.92.62,3.63-.31,5.33-1.55-.39-6.41-.73-14.4-.47-20.1l.3.7c-.09-.33-.12-.52-.09-.53a10.39,10.39,0,0,1,.95,2.27c.52,1.43,1.18,3.43,1.84,5.65q.27.93.51,1.8c.7,2.37,1.31,4.76,1.77,7a5.27,5.27,0,0,1,2.25-.46c1.76.05,3.62,1.1,5.28,1.32-2.82-6.83-5.83-15.38-7-21.22A28.36,28.36,0,0,1,372.9,246.68Zm3.63,10.87a10.07,10.07,0,0,1-.22-2.8,10.69,10.69,0,0,1,.05-2.81,10.42,10.42,0,0,1,.17,5.61Z" style="fill:#FF5D0A"></path><path d="M370.17,246.8a.52.52,0,0,1,.11-.1,28.07,28.07,0,0,1-8.87-1.73c.07.09.15.19.24.32a1.74,1.74,0,0,0,.1.19c.58.16.76,1,.69,1.63a7.54,7.54,0,0,1-.16.93,8.43,8.43,0,0,1-.59,2.59c-.44,1.15-1,2.34-1.64,3.6a66.08,66.08,0,0,1-3.52,6.22c-.59.92-1.07,1.6-1.37,2a4.33,4.33,0,0,1,1.06.26c2.79,1.09,4.3,5.14,7.27,4.79l.27-.05c1.74-5.54,3.48-13.22,5.22-18.37A5.84,5.84,0,0,1,370.17,246.8Z" style="fill:#FF5D0A"></path><path d="M394.86,202.44q.5-.45,1-.87a5.27,5.27,0,0,1,1.32-1.3c.79-.56,1.67-1.11,2.61-1.68,1.87-1.14,3.61-2.08,4.9-2.72.88-.43,1.53-.72,1.87-.84l1.78-1.05,0,0c-1.76-2.76.52-6.95-1.55-9.49a3.14,3.14,0,0,0-.31-.32c-5.21,3.86-11.93,8.24-17.78,11.7A28.46,28.46,0,0,1,394.86,202.44Zm1.25-11.18a30.64,30.64,0,0,1,3.71-2.3,13.48,13.48,0,0,1-3.43,2.74,13.89,13.89,0,0,1-3.91,2A30.32,30.32,0,0,1,396.11,191.26Z" style="fill:#FF5D0A"></path><path d="M399.32,213.7a28.91,28.91,0,0,1,.37,4.59c0,.29,0,.57,0,.85h.47c.84,0,1.67.08,2.51.14l.59,0c1.72,0,4.09.16,6.71.35,2.45.19,4.67.41,6.34.61.42-1.89,2.75-2.83,3.44-4.66a3.87,3.87,0,0,0-.2-2.87c-6.11.34-14.37.84-19.46,1Z" style="fill:#FF5D0A"></path><path d="M392.38,178.32l-10.14,12.75a3.58,3.58,0,0,1-.75.7,28,28,0,0,1,6.29,3.39l.14-.18h0a3,3,0,0,1,.62-1c.45-.52,1-1.13,1.58-1.79,3-3.6,6.42-7.24,9.28-10.26a4.33,4.33,0,0,1-1.56-1c-1.26-1.27-1.53-3.39-3-4.36a3.45,3.45,0,0,0-1.57-.5.45.45,0,0,1,0,.11A3,3,0,0,1,392.38,178.32Z" style="fill:#FF5D0A"></path><path d="M398.66,210.71l.83-.37a13,13,0,0,1,1.95-.88c1.24-.51,3-1.17,4.88-1.87s3.66-1.31,4.93-1.73a9.35,9.35,0,0,1,2.1-.57s-.24.18-.72.39l2.58-.85c0-2.08.58-4.29-.48-6.06a4.31,4.31,0,0,0-1-1.13c-5.45,2.2-12.9,5.66-17.68,6.66A28.21,28.21,0,0,1,398.66,210.71Z" style="fill:#FF5D0A"></path><path d="M416.23,220.68v0l-2.23-.17C414.74,220.56,415.48,220.62,416.23,220.68Z" style="fill:#FF5D0A"></path><path d="M362,190.71c.06.24.1.46.14.66l.16-.05c-.14-.36-.28-.75-.42-1.18C361.89,190.33,361.94,190.54,362,190.71Z" style="fill:#FF5D0A"></path><path d="M404.81,183.16h0Z" style="fill:#FF5D0A"></path><path d="M387.86,195.22a1.05,1.05,0,0,1,.06-.24l-.14.18Z"></path><path d="M395.34,203.18a2.6,2.6,0,0,1,.18-.94,2.92,2.92,0,0,1,.36-.67q-.53.42-1,.87C395,202.68,395.18,202.93,395.34,203.18Z" style="fill:#FF5D0A"></path><path d="M413.7,235.45v-.14l-.93-.39Z"></path><path d="M396.1,236.83c-.79-.59-1.49-1.11-2-1.54l-.12.15C394.32,235.66,395.08,236.15,396.1,236.83Z"></path><path d="M396.92,256.09l.22.41.06-.16c-1.18-2-2.52-4.34-3.86-6.57C394.76,252.22,396,254.46,396.92,256.09Z"></path><path d="M372.32,246.7a2.81,2.81,0,0,1,1,1.11c0,.06,0,.12.07.18a2.37,2.37,0,0,0-.45-1.31Z" style="fill:#FF5D0A"></path><path d="M361.75,245.48a4.54,4.54,0,0,1,.53,1.93,4.42,4.42,0,0,1,0,.63,7.54,7.54,0,0,0,.16-.93C362.51,246.47,362.33,245.64,361.75,245.48Z" style="fill:#FF5D0A"></path><path d="M356,242.26l-.1,0c-.18.28-.57.8-1.12,1.47-.05.06-.11.14-.17.2.46-.51.88-1,1.25-1.44Z"></path><path d="M344.15,209.72a2.31,2.31,0,0,1-1.1.24l-.83-.12c.59.2,1.17.39,1.73.56C344,210.17,344.08,210,344.15,209.72Z"></path><path d="M355.22,194.82a9.69,9.69,0,0,1-1.55-1.52l-1-1.08c.82,1.1,1.56,2.09,2.16,2.85Z"></path><path d="M364,190.81l.09,0c0-.25,0-.51,0-.77A3.66,3.66,0,0,1,364,190.81Z"></path><path d="M371.1,189.87h.38c-.05-1.13-.06-3.21,0-5.65l-.33,5.26C371.11,189.61,371.1,189.74,371.1,189.87Z"></path><path d="M380.14,190.23a2.6,2.6,0,0,0-.19,1c.52.17,1,.35,1.54.55a3.58,3.58,0,0,0,.75-.7l10.14-12.75a3,3,0,0,0,.9-2.11.45.45,0,0,0,0-.11c-1.83-.15-3.93.76-5.76.19a13.59,13.59,0,0,1-1.29-.45c-.52,1.57-1.38,4-2.39,6.68a81.44,81.44,0,0,1-3.42,8.38,78.39,78.39,0,0,1,2.93-8.56c1-2.71,1.95-5.11,2.59-6.64a1.55,1.55,0,0,1-.22-.12l-.13.12Q382.85,183,380.14,190.23Zm5.28-4.18a25.59,25.59,0,0,1,2.94-3.49,16.3,16.3,0,0,1-2.53,3.81,16.74,16.74,0,0,1-3.11,3.36A25.58,25.58,0,0,1,385.42,186.05Z" style="fill:#FF5D0A"></path><path d="M392.8,189.25c1.69-1.83,3.24-3.47,4.38-4.64a12.67,12.67,0,0,1,1.93-1.82,13.72,13.72,0,0,1-1.66,2.07c-1.07,1.23-2.58,2.91-4.26,4.74s-3.24,3.48-4.38,4.64a2,2,0,0,0-.69,1.16l.57.44c5.85-3.46,12.57-7.84,17.78-11.7a4.29,4.29,0,0,0-1.63-1h0c-1.68-.58-3.75-.56-5.41-1.21-2.86,3-6.3,6.66-9.28,10.26C390.92,191.31,391.83,190.31,392.8,189.25Z" style="fill:#FF5D0A"></path><path d="M406.85,195a11.33,11.33,0,0,1-2,1.24c-1.23.72-2.94,1.7-4.8,2.83s-3.69,2.07-4.22,3.35a2.63,2.63,0,0,0-.24,1.24l.39.68c4.78-1,12.23-4.46,17.68-6.66-1.66-1.33-4.15-1.85-5.33-3.66L406.58,195C406.74,195,406.84,194.94,406.85,195Zm-3.51,6a11,11,0,0,1-2.89,1.07,14,14,0,0,1,5.63-2.47A10.72,10.72,0,0,1,403.34,200.92Z" style="fill:#FF5D0A"></path><path d="M411.39,206.21c-1.24.5-3,1.16-4.89,1.87s-3.67,1.31-4.94,1.72a8.59,8.59,0,0,1-2.09.57l0,0-.83.37a28.84,28.84,0,0,1,.66,3h.75c5.09-.13,13.35-.63,19.46-1a8.74,8.74,0,0,0-1.18-2c-1.09-1.37-2.44-2.63-2.92-4.31a6.5,6.5,0,0,1-.22-1.65l-2.58.85Z" style="fill:#FF5D0A"></path><path d="M409.91,220.18l-6.69-.51a16.18,16.18,0,0,1-2.77-.32,10.88,10.88,0,0,1,2.2-.06c-.84-.06-1.67-.11-2.51-.14h-.47c0,.83-.08,1.64-.17,2.45,5.25,2,13,4.72,19.05,6.93a3,3,0,0,0,.34-1.31c.07-2.39-2.81-4.22-2.66-6.53-.75-.06-1.49-.12-2.23-.2Z" style="fill:#FF5D0A"></path><path d="M401.67,229.41,398.91,228l-.78-.38A27.52,27.52,0,0,1,397,230.4c4.62,3.54,10.69,9.76,15.83,14.26a4.38,4.38,0,0,0,1.59-1.49c1.24-2.18-.45-4.83-.69-7.33-1.55-.77-3.9-2-6.52-3.39C405.06,231.3,403.12,230.23,401.67,229.41Z" style="fill:#FF5D0A"></path><path d="M402.42,241.87c-2.46-1.75-4.68-3.37-6.26-4.55-1.13-.85-1.94-1.47-2.29-1.79-.37.48-.75.95-1.15,1.4a9.54,9.54,0,0,0,1.24,1.53c3.44,3.61,8.84,9.79,12.89,14.2.94-1.56.71-3.83,1.84-5.36a3.71,3.71,0,0,1,.51-.54l-1.63-1.28C406.11,244.47,404.33,243.23,402.42,241.87Z" style="fill:#FF5D0A"></path><path d="M392.83,249.91c-.72-1.24-1.4-2.43-2-3.53a11.63,11.63,0,0,0-1.77-2.72,1.9,1.9,0,0,0-1.93-.43c-.47.17-.6.48-.64.44s0-.35.55-.63a2.09,2.09,0,0,1,2.09.22,16.88,16.88,0,0,0-1.47-1.72c-.52.36-1.05.72-1.59,1.05,1.15,5.84,4.16,14.39,7,21.22a3,3,0,0,0,2.32-.53c1.78-1.36,1.05-4.22,1.66-6.36l-.4-.64C395.61,254.66,394.27,252.41,392.83,249.91Z" style="fill:#FF5D0A"></path><path d="M384.72,259.9a10.78,10.78,0,0,1,.43,2.43,12.7,12.7,0,0,1-.78-2.33l-1.66-5.69c-.63-2.12-1.2-4.05-1.69-5.68-.23-.81-.41-1.45-.51-1.86l-.3-.7c-.26,5.7.08,13.69.47,20.1a25.74,25.74,0,0,1,4.81-3.22c-.46-2.23-1.07-4.62-1.77-7C384.14,257.47,384.48,258.83,384.72,259.9Z" style="fill:#FF5D0A"></path><path d="M372.05,261.92a16.46,16.46,0,0,1-.56,2.88,15.4,15.4,0,0,1,.2-2.93c.19-1.8.49-4.28.85-7l.54-3.86a5.89,5.89,0,0,0-.13-3,2.69,2.69,0,0,0-1.09-1.25l-.6,0c-.33,0-.66,0-1,0a.52.52,0,0,0-.11.1,5.84,5.84,0,0,0-1.19,2.29c-1.74,5.15-3.48,12.83-5.22,18.37,2.06-.43,3.39-2.94,5.52-3.08a3.94,3.94,0,0,1,2.61,1c.17-1.7.32-3.58.48-5.49C372.26,260.63,372.15,261.32,372.05,261.92Z" style="fill:#FF5D0A"></path><path d="M359.59,254c.61-1.24,1.21-2.44,1.66-3.53a8,8,0,0,0,.66-3,4.93,4.93,0,0,0-.41-2,1.66,1.66,0,0,0-1,.64c-3.88,4.31-9.35,11.26-13.33,16.63,2.2.83,5.22-.58,7.81-.3.24-.44.67-1.18,1.24-2.17C357.12,258.68,358.35,256.48,359.59,254Z" style="fill:#FF5D0A"></path><path d="M346.41,252.13c.7-.83,2.5-2.7,4.57-4.93,2.25-2.41,4.13-4.47,4.78-5.07-.65-.43-1.28-.88-1.9-1.35a30.59,30.59,0,0,1-2.49,2.1,14.37,14.37,0,0,1-3.12,2.1,13.22,13.22,0,0,1,2.8-2.51c.84-.65,1.61-1.21,2.18-1.59a14.63,14.63,0,0,0-3.38,2L338,251.76c2.06.36,4.39.45,5.68,2a3.71,3.71,0,0,1,.49.77C344.82,253.75,345.59,253,346.41,252.13Z" style="fill:#FF5D0A"></path><path d="M341.9,240.08c2-1.3,3.87-2.43,5.13-3.27a1.63,1.63,0,0,0,.58-.74,1,1,0,0,0,0-.7c-.13-.39-.4-.46-.38-.5s.33,0,.57.42a1.25,1.25,0,0,1,.09.86.7.7,0,0,1-.06.17,2.4,2.4,0,0,0,.78-.84c-.32-.43-.64-.87-.95-1.32a3.55,3.55,0,0,0-1.2.16c-5.35,1.41-13.52,4.46-19.89,6.82,2,1.46,5.65.83,6.94,3.08a3.48,3.48,0,0,1,.31.87c1.75-1.07,3.7-2.24,5.64-3.41C340.22,241.17,341,240.64,341.9,240.08Z" style="fill:#FF5D0A"></path><path d="M335.84,230.26l3.43-.92c1.06-.27,2-.48,2.77-.76a5.41,5.41,0,0,0,2.16-1.42s-.06.27-.37.63a3.65,3.65,0,0,1-.81.68l.43-.15a2.34,2.34,0,0,0,1-.58c-.18-.52-.35-1-.5-1.57a3.54,3.54,0,0,0-1.34-.24q-9.92-.35-19.84-.58c.92,1.56,3,2.25,3.82,3.86a4.61,4.61,0,0,1,.23,3.28l5-1.11C333,231,334.39,230.65,335.84,230.26Z" style="fill:#FF5D0A"></path><path d="M325,218.54a13.49,13.49,0,0,1,2.52,0c1.56.06,3.7.14,6.07.19s4.52.06,6.07.07a14,14,0,0,1,2.53.1,10.86,10.86,0,0,1-2.52.27c-1,.06-2.32.09-3.75.1,2.46.1,4.82.13,6.8,0h.16c0-.33,0-.66,0-1s0-.94,0-1.4l-.14-.09c-5.47-3.26-13.33-5.61-19.84-7.39a2.37,2.37,0,0,0,1.53,2.56l-.14-.9c1.61.7,2.05,2.87,1.54,4.55a12,12,0,0,1-1.56,3l1.52.09A2.34,2.34,0,0,1,325,218.54Zm14-1.41a11.35,11.35,0,0,1,3.29.85,11.47,11.47,0,0,1-3.38-.33,11.23,11.23,0,0,1-3.28-.85A11.37,11.37,0,0,1,339,217.13Z" style="fill:#FF5D0A"></path><path d="M327.39,203.74a16,16,0,0,1,2.66,1.15l2.07,1c1.84.79,3.76,1.59,5.63,2.33a30.87,30.87,0,0,0,5.32,1.41,2,2,0,0,0,1.08-.18.81.81,0,0,0,.14-.12c.2-.59.41-1.17.65-1.75-.92-.45-2.32-1.21-3.88-2.11a28.63,28.63,0,0,1-4.72-3,31.72,31.72,0,0,1,5,2.56l1.62,1A170.94,170.94,0,0,0,327.17,196c-.32,1.88.4,4.28-.18,6.23a5.52,5.52,0,0,1-.55,1.18l1.2.51C327.48,203.83,327.38,203.75,327.39,203.74Z" style="fill:#FF5D0A"></path><path d="M337.05,192.1a12.09,12.09,0,0,1,1.81,1.64c1.09,1,2.61,2.46,4.35,3.94s3.39,2.75,4.6,3.65l.41.31c.35-.48.7-.95,1.08-1.4l-.06-.1c-.53-.63-1.19-1.48-1.89-2.45a17.3,17.3,0,0,1-2.38-3.94,9.49,9.49,0,0,1,1.52,1.86,107.42,107.42,0,0,0-8-10.92,3.69,3.69,0,0,0-2.17,1.17c-1.11,1.35-.7,3.47-1.24,5.07,1,.92,2.19,1.94,3.41,3A9.69,9.69,0,0,1,337.05,192.1Z" style="fill:#FF5D0A"></path><path d="M350.69,189c2.5,3.16,4.59,5.68,4.54,5.84q.69-.47,1.41-.9c0-.07-.05-.13-.08-.19-1.88-4.8-5.29-12.32-7.57-17.81a10.56,10.56,0,0,0-1.06.55c-1.67,1-2.22,3.17-3.12,4.94.58.76,1.24,1.65,1.94,2.61S349,186.87,350.69,189Zm2.58-1.45a19.13,19.13,0,0,1,1.62,3.23,18.69,18.69,0,0,1,1.45,3.31,15.56,15.56,0,0,1-3.07-6.54Z" style="fill:#FF5D0A"></path><path d="M359.41,177.76a11.78,11.78,0,0,1,.48,2.23c.24,1.37.57,3.28,1,5.37.36,1.83.71,3.47,1,4.78.14.43.28.82.42,1.18.53-.18,1.07-.34,1.63-.49a25.08,25.08,0,0,1-.51-3.31,15.54,15.54,0,0,1-.34-3.38,9.08,9.08,0,0,1,.86,3.32c.09.66.13,1.28.15,1.81,0-5.17.11-11.82.1-17.08-.83.79-1.44,2.17-2.78,4.15a2.76,2.76,0,0,1-2.06,1.14l.06.39C359.39,177.81,359.4,177.76,359.41,177.76Z" style="fill:#FF5D0A"></path><path d="M372,183.15c-.05,2.91-.14,5.43-.25,6.72.68,0,1.36,0,2,.11a15.84,15.84,0,0,0,2.2-5.53c.88-3.51,2.09-9.15,3.07-13.27a4.32,4.32,0,0,0-1.77.51c-1.54.85-3.41,4.57-4.38,4.59a1.27,1.27,0,0,1-.9-.48l0,.42C372,177.44,372,180.08,372,183.15Z" style="fill:#FF5D0A"></path><path d="M401.56,209.8c1.27-.41,3-1,4.94-1.72s3.65-1.37,4.89-1.87l1.24-.53c.48-.21.74-.35.72-.39a9.35,9.35,0,0,0-2.1.57c-1.27.42-3,1-4.93,1.73s-3.64,1.36-4.88,1.87a13,13,0,0,0-1.95.88l0,0A8.59,8.59,0,0,0,401.56,209.8Z" style="fill:#263238"></path><path d="M403.24,219.31l-.59,0a10.88,10.88,0,0,0-2.2.06,16.18,16.18,0,0,0,2.77.32l6.69.51,4.09.3,2.23.17c0-.09,0-.18,0-.27s0-.07,0-.11c-1.67-.2-3.89-.42-6.34-.61C407.33,219.47,405,219.35,403.24,219.31Z" style="fill:#263238"></path><path d="M407.44,232a84.58,84.58,0,0,0-8.45-4.24,18.26,18.26,0,0,0,2.68,1.66c1.45.82,3.39,1.89,5.53,3,2.62,1.4,5,2.62,6.52,3.39,0-.13,0-.26,0-.39l-.93-.53C411.34,234.11,409.48,233.08,407.44,232Z" style="fill:#263238"></path><path d="M402.72,241.44c-2.46-1.75-4.7-3.31-6.35-4.42l-.27-.19c-1-.68-1.78-1.17-2.16-1.39l.12-.15A29,29,0,0,0,397,230.4a27.52,27.52,0,0,0,1.14-2.81,28.31,28.31,0,0,0,1.37-6c.09-.81.15-1.62.17-2.45,0-.28,0-.56,0-.85a28,28,0,0,0-1-7.58A28.21,28.21,0,0,0,396,204.3l-.39-.68a2.63,2.63,0,0,1,.24-1.24c.53-1.28,2.39-2.19,4.22-3.35s3.57-2.11,4.8-2.83a11.33,11.33,0,0,0,2-1.24s-.11,0-.27.07c-.34.12-1,.41-1.87.84-1.29.64-3,1.58-4.9,2.72-.94.57-1.82,1.12-2.61,1.68a5.27,5.27,0,0,0-1.32,1.3,2.92,2.92,0,0,0-.36.67,2.6,2.6,0,0,0-.18.94c-.16-.25-.31-.5-.48-.74a28.46,28.46,0,0,0-6.17-6.6l-.57-.44a2,2,0,0,1,.69-1.16c1.14-1.16,2.69-2.8,4.38-4.64s3.19-3.51,4.26-4.74a13.72,13.72,0,0,0,1.66-2.07,12.67,12.67,0,0,0-1.93,1.82c-1.14,1.17-2.69,2.81-4.38,4.64-1,1.06-1.88,2.06-2.68,3-.59.66-1.13,1.27-1.58,1.79a3,3,0,0,0-.62,1h0a1.05,1.05,0,0,0-.06.24l-.08-.06a28,28,0,0,0-6.29-3.39c-.51-.2-1-.38-1.54-.55a28.19,28.19,0,0,0-6.19-1.24c-.67-.06-1.35-.09-2-.11.11-1.29.2-3.81.25-6.72.06-3.07,0-5.71,0-6.93a4.58,4.58,0,0,0,0-.49l-.1-.11c-.13.61-.28,3.74-.35,7.52,0,.37,0,.73,0,1.08,0,2.44,0,4.52,0,5.65h-.38a28.57,28.57,0,0,0-7,.91l-.09,0a3.66,3.66,0,0,0,.08-.8c0-.22,0-.46,0-.74,0-.53-.06-1.15-.15-1.81a9.08,9.08,0,0,0-.86-3.32,15.54,15.54,0,0,0,.34,3.38,25.08,25.08,0,0,0,.51,3.31c-.56.15-1.1.31-1.63.49l-.16.05c0-.2-.08-.42-.14-.66s-.08-.38-.12-.57c-.28-1.31-.63-2.95-1-4.78-.4-2.09-.73-4-1-5.37a11.78,11.78,0,0,0-.48-2.23s0,.05,0,.11a17.13,17.13,0,0,0,.14,2.17c.15,1.39.42,3.32.83,5.42s.88,4,1.27,5.34c.07.25.13.47.2.68a27.86,27.86,0,0,0-5.18,2.43q-.72.43-1.41.9c0-.16-2-2.68-4.54-5.84-1.67-2.1-3.11-3.95-3.94-5-.43-.53-.7-.82-.74-.79a8.59,8.59,0,0,0,1.13,1.86c.76,1.11,1.86,2.6,3.14,4.21.87,1.09,1.7,2.09,2.43,2.93l1,1.08a9.69,9.69,0,0,0,1.55,1.52l-.35.25a28.49,28.49,0,0,0-5.31,4.86c-.46-.68-1.08-1.57-1.78-2.54l-1.29-1.78a9.49,9.49,0,0,0-1.52-1.86,17.3,17.3,0,0,0,2.38,3.94c.7,1,1.36,1.82,1.89,2.45l.07.08v0c-.38.45-.73.92-1.08,1.4l-.41-.31c-1.21-.9-2.85-2.17-4.6-3.65s-3.26-2.9-4.35-3.94a12.09,12.09,0,0,0-1.81-1.64,9.69,9.69,0,0,0,1.48,1.82l.07.08a50.7,50.7,0,0,0,9,7.63l.43.28a28,28,0,0,0-3,5.33c-.54-.35-1.27-.8-2.12-1.31l-1.62-1a31.72,31.72,0,0,0-5-2.56,28.63,28.63,0,0,0,4.72,3c1.56.9,3,1.66,3.88,2.11-.24.58-.45,1.16-.65,1.75a.81.81,0,0,1-.14.12,2,2,0,0,1-1.08.18,30.87,30.87,0,0,1-5.32-1.41q-.66-.23-1.32-.48c-1.59-.62-3-1.26-4.31-1.85l-2.07-1a16,16,0,0,0-2.66-1.15s.09.09.25.19c.37.25,1.15.7,2.25,1.29a56.45,56.45,0,0,0,6.35,3,29.44,29.44,0,0,0,6,1.66l.83.12a2.31,2.31,0,0,0,1.1-.24c-.07.23-.14.45-.2.68a28.41,28.41,0,0,0-1.09,6.49c0,.46,0,.93,0,1.4s0,.67,0,1a28.91,28.91,0,0,0,1.09,6.88c.15.53.32,1.05.5,1.57a28.59,28.59,0,0,0,3.22,6.42c.31.45.63.89.95,1.32a28.8,28.8,0,0,0,5,5.13l-.42.27c-.57.38-1.34.94-2.18,1.59a13.22,13.22,0,0,0-2.8,2.51,14.37,14.37,0,0,0,3.12-2.1,30.59,30.59,0,0,0,2.49-2.1c.62.47,1.25.92,1.9,1.35-.65.6-2.53,2.66-4.78,5.07-2.07,2.23-3.87,4.1-4.57,4.93-.23.27-.35.43-.32.46a8.29,8.29,0,0,0,1.64-1.37c1-.91,2.25-2.19,3.63-3.66s2.41-2.68,3.23-3.68c.06-.06.12-.14.17-.2.55-.67.94-1.19,1.12-1.47l.1,0a28.28,28.28,0,0,0,5.21,2.63,5.08,5.08,0,0,1,.31.57,4.93,4.93,0,0,1,.41,2,8,8,0,0,1-.66,3c-.45,1.09-1.05,2.29-1.66,3.53-1.24,2.49-2.47,4.69-3.37,6.27-.57,1-1,1.73-1.24,2.17l.18,0c.3-.41.78-1.09,1.37-2a66.08,66.08,0,0,0,3.52-6.22c.62-1.26,1.2-2.45,1.64-3.6a8.43,8.43,0,0,0,.59-2.59,4.42,4.42,0,0,0,0-.63,4.54,4.54,0,0,0-.53-1.93,1.74,1.74,0,0,1-.1-.19c-.09-.13-.17-.23-.24-.32a28.07,28.07,0,0,0,8.87,1.73c.32,0,.65,0,1,0l.6,0A2.69,2.69,0,0,1,373,248a5.89,5.89,0,0,1,.13,3l-.54,3.86c-.36,2.74-.66,5.22-.85,7a15.4,15.4,0,0,0-.2,2.93,16.46,16.46,0,0,0,.56-2.88c.1-.6.21-1.29.32-2,.21-1.46.45-3.15.69-5,.17-1.36.34-2.66.49-3.87a6.16,6.16,0,0,0-.2-3.06c0-.06,0-.12-.07-.18a2.81,2.81,0,0,0-1-1.11l.58,0A28.36,28.36,0,0,0,386,242.59c.54-.33,1.07-.69,1.59-1.05a28.6,28.6,0,0,0,5.09-4.61c.4-.45.78-.92,1.15-1.4.35.32,1.16.94,2.29,1.79,1.58,1.18,3.8,2.8,6.26,4.55,1.91,1.36,3.69,2.6,5.15,3.61l1.2.82.53.35.28-.2L409,246C407.39,244.81,405.18,243.2,402.72,241.44Zm-31.46,1.78a24.93,24.93,0,1,1,24.93-24.93A24.93,24.93,0,0,1,371.26,243.22Z" style="fill:#263238"></path><path d="M399.26,248.82a37.63,37.63,0,0,0-2.47-3.58,35.49,35.49,0,0,0-2.48-3.57,12.8,12.8,0,0,0,2.05,3.87A12.36,12.36,0,0,0,399.26,248.82Z" style="fill:#263238"></path><path d="M393.34,249.77l-.06-.12-2.06-3.51a10.66,10.66,0,0,0-2-2.76,1.67,1.67,0,0,0-.16-.12A2.09,2.09,0,0,0,387,243c-.51.28-.57.64-.55.63s.17-.27.64-.44a1.9,1.9,0,0,1,1.93.43,11.63,11.63,0,0,1,1.77,2.72c.63,1.1,1.31,2.29,2,3.53,1.44,2.5,2.78,4.75,3.77,6.37l.4.64c0-.14.09-.28.14-.42l-.22-.41C396,254.46,394.76,252.22,393.34,249.77Z" style="fill:#263238"></path><path d="M382.71,254.31l1.66,5.69a12.7,12.7,0,0,0,.78,2.33,10.78,10.78,0,0,0-.43-2.43c-.24-1.07-.58-2.43-1-3.94q-.24-.87-.51-1.8c-.66-2.22-1.32-4.22-1.84-5.65a10.39,10.39,0,0,0-.95-2.27s0,.2.09.53.28,1,.51,1.86C381.51,250.26,382.08,252.19,382.71,254.31Z" style="fill:#263238"></path><path d="M376.36,251.94a10.69,10.69,0,0,0-.05,2.81,10.07,10.07,0,0,0,.22,2.8,10.42,10.42,0,0,0-.17-5.61Z" style="fill:#263238"></path><path d="M347.8,235.29c-.24-.45-.58-.44-.57-.42s.25.11.38.5a1,1,0,0,1,0,.7,1.63,1.63,0,0,1-.58.74c-1.26.84-3.14,2-5.13,3.27-.86.56-1.68,1.09-2.44,1.6-1,.66-1.91,1.28-2.65,1.78a12.51,12.51,0,0,0-2,1.53,12,12,0,0,0,2.22-1.22c1.34-.81,3.17-2,5.17-3.25s3.81-2.45,5.09-3.43a1.86,1.86,0,0,0,.56-.77.7.7,0,0,0,.06-.17A1.25,1.25,0,0,0,347.8,235.29Z" style="fill:#263238"></path><path d="M343.83,227.79c.31-.36.39-.62.37-.63a5.41,5.41,0,0,1-2.16,1.42c-.75.28-1.71.49-2.77.76l-3.43.92c-1.45.39-2.82.77-4,1.12l-2.18.64a13.34,13.34,0,0,0-2.52.88,13.84,13.84,0,0,0,2.62-.53c1.6-.38,3.81-1,6.24-1.61l3.42-.95a26.26,26.26,0,0,0,2.78-.89,6,6,0,0,0,.84-.45A3.65,3.65,0,0,0,343.83,227.79Z" style="fill:#263238"></path><path d="M342.16,218.91a14,14,0,0,0-2.53-.1c-1.55,0-3.7,0-6.07-.07s-4.51-.13-6.07-.19a13.49,13.49,0,0,0-2.52,0,2.34,2.34,0,0,0,.8.18c.42.06,1,.13,1.7.2,1.55.15,3.7.29,6.08.34.82,0,1.59,0,2.34,0,1.43,0,2.73,0,3.75-.1A10.86,10.86,0,0,0,342.16,218.91Z" style="fill:#263238"></path><path d="M338.87,217.65a11.47,11.47,0,0,0,3.38.33,21.88,21.88,0,0,0-6.66-1.18A11.23,11.23,0,0,0,338.87,217.65Z" style="fill:#263238"></path><path d="M356.34,194.06a18.69,18.69,0,0,0-1.45-3.31,19.13,19.13,0,0,0-1.62-3.23,15.56,15.56,0,0,0,3.07,6.54Z" style="fill:#263238"></path><path d="M380.39,190.9a81.44,81.44,0,0,0,3.42-8.38c1-2.7,1.87-5.11,2.39-6.68l-.29-.14c-.64,1.53-1.58,3.93-2.59,6.64A78.39,78.39,0,0,0,380.39,190.9Z" style="fill:#263238"></path><path d="M385.83,186.37a16.3,16.3,0,0,0,2.53-3.81,25.59,25.59,0,0,0-2.94,3.49,25.58,25.58,0,0,0-2.7,3.68A16.74,16.74,0,0,0,385.83,186.37Z" style="fill:#263238"></path><path d="M396.39,191.7a13.48,13.48,0,0,0,3.43-2.74,30.64,30.64,0,0,0-3.71,2.3,30.32,30.32,0,0,0-3.63,2.42A13.89,13.89,0,0,0,396.39,191.7Z" style="fill:#263238"></path><path d="M403.13,200.44a8.17,8.17,0,0,0-2.68,1.55,11,11,0,0,0,2.89-1.07,10.72,10.72,0,0,0,2.74-1.4A8.09,8.09,0,0,0,403.13,200.44Z" style="fill:#263238"></path><circle cx="371.26" cy="218.29" r="24.93" style="fill:#fafafa"></circle><path d="M383,270.21a2.59,2.59,0,0,1,.12.6c.06.46.14,1,.24,1.74.2,1.59.47,3.76.81,6.42.68,5.41,1.66,12.88,2.85,21.12s2.4,15.68,3.32,21.06c.45,2.64.81,4.8,1.08,6.37.12.71.21,1.28.28,1.74a3.74,3.74,0,0,1,.07.61,2.38,2.38,0,0,1-.17-.59c-.1-.45-.22-1-.38-1.72-.32-1.49-.74-3.66-1.25-6.35-1-5.36-2.26-12.8-3.46-21s-2.12-15.73-2.71-21.16c-.29-2.71-.51-4.91-.64-6.43-.06-.72-.11-1.3-.14-1.76A2.56,2.56,0,0,1,383,270.21Z" style="fill:#263238"></path><path d="M368.55,265c.14,0,1.33,20.34,2.66,45.45s2.3,45.46,2.15,45.47-1.34-20.34-2.67-45.45S368.4,265,368.55,265Z" style="fill:#263238"></path><path d="M360.59,269.4a2.13,2.13,0,0,1-.07.61c-.08.45-.19,1-.32,1.71-.31,1.55-.73,3.68-1.25,6.27-1.12,5.35-2.64,12.62-4.33,20.65s-3.32,15.28-4.48,20.61c-.58,2.58-1.06,4.7-1.41,6.24-.17.68-.3,1.24-.41,1.68a2.62,2.62,0,0,1-.18.59,2.51,2.51,0,0,1,.08-.61c.08-.44.18-1,.31-1.71.31-1.54.74-3.67,1.25-6.27,1.13-5.34,2.65-12.61,4.33-20.65s3.32-15.28,4.48-20.61c.59-2.58,1.07-4.7,1.42-6.24.16-.68.3-1.24.41-1.68A4.46,4.46,0,0,1,360.59,269.4Z" style="fill:#263238"></path><path d="M373.19,204.29l3.51,7.1a1.21,1.21,0,0,0,.9.66l7.84,1.13a1.2,1.2,0,0,1,.66,2l-5.67,5.52a1.19,1.19,0,0,0-.34,1.06l1.33,7.81a1.19,1.19,0,0,1-1.73,1.26l-7-3.69a1.23,1.23,0,0,0-1.12,0l-7,3.69a1.19,1.19,0,0,1-1.73-1.26l1.34-7.81a1.2,1.2,0,0,0-.35-1.06l-5.67-5.52a1.2,1.2,0,0,1,.67-2l7.83-1.13a1.21,1.21,0,0,0,.9-.66l3.51-7.1A1.19,1.19,0,0,1,373.19,204.29Z" style="fill:#FF5D0A"></path><path d="M381.6,202.08l.42,1.36a1.91,1.91,0,0,0,1.27,1.26l1.36.43-1.37.46a1.94,1.94,0,0,0-1.2,1.19l-.48,1.39-.53-1.45a1.94,1.94,0,0,0-1.2-1.16l-1.31-.43,1.29-.44a1.88,1.88,0,0,0,1.17-1.12Z" style="fill:#FF5D0A"></path><g style="opacity:0.30000000000000004"><path d="M380.14,190.23a2.6,2.6,0,0,0-.19,1c.52.17,1,.35,1.54.55a3.58,3.58,0,0,0,.75-.7l10.14-12.75a3,3,0,0,0,.9-2.11.45.45,0,0,0,0-.11c-1.83-.15-3.93.76-5.76.19a13.59,13.59,0,0,1-1.29-.45c-.52,1.57-1.38,4-2.39,6.68a81.44,81.44,0,0,1-3.42,8.38,78.39,78.39,0,0,1,2.93-8.56c1-2.71,1.95-5.11,2.59-6.64a1.55,1.55,0,0,1-.22-.12l-.13.12Q382.85,183,380.14,190.23Zm5.28-4.18a25.59,25.59,0,0,1,2.94-3.49,16.3,16.3,0,0,1-2.53,3.81,16.74,16.74,0,0,1-3.11,3.36A25.58,25.58,0,0,1,385.42,186.05Z"></path><path d="M392.8,189.25c1.69-1.83,3.24-3.47,4.38-4.64a12.67,12.67,0,0,1,1.93-1.82,13.72,13.72,0,0,1-1.66,2.07c-1.07,1.23-2.58,2.91-4.26,4.74s-3.24,3.48-4.38,4.64a2,2,0,0,0-.69,1.16l.57.44c5.85-3.46,12.57-7.84,17.78-11.7a4.29,4.29,0,0,0-1.63-1h0c-1.68-.58-3.75-.56-5.41-1.21-2.86,3-6.3,6.66-9.28,10.26C390.92,191.31,391.83,190.31,392.8,189.25Z"></path><path d="M406.85,195a11.33,11.33,0,0,1-2,1.24c-1.23.72-2.94,1.7-4.8,2.83s-3.69,2.07-4.22,3.35a2.63,2.63,0,0,0-.24,1.24l.39.68c4.78-1,12.23-4.46,17.68-6.66-1.66-1.33-4.15-1.85-5.33-3.66L406.58,195C406.74,195,406.84,194.94,406.85,195Zm-3.51,6a11,11,0,0,1-2.89,1.07,14,14,0,0,1,5.63-2.47A10.72,10.72,0,0,1,403.34,200.92Z"></path><path d="M411.39,206.21c-1.24.5-3,1.16-4.89,1.87s-3.67,1.31-4.94,1.72a8.59,8.59,0,0,1-2.09.57l0,0-.83.37a28.84,28.84,0,0,1,.66,3h.75c5.09-.13,13.35-.63,19.46-1a8.74,8.74,0,0,0-1.18-2c-1.09-1.37-2.44-2.63-2.92-4.31a6.5,6.5,0,0,1-.22-1.65l-2.58.85Z"></path><path d="M409.91,220.18l-6.69-.51a16.18,16.18,0,0,1-2.77-.32,10.88,10.88,0,0,1,2.2-.06c-.84-.06-1.67-.11-2.51-.14h-.47c0,.83-.08,1.64-.17,2.45,5.25,2,13,4.72,19.05,6.93a3,3,0,0,0,.34-1.31c.07-2.39-2.81-4.22-2.66-6.53-.75-.06-1.49-.12-2.23-.2Z"></path><path d="M401.67,229.41,398.91,228l-.78-.38A27.52,27.52,0,0,1,397,230.4c4.62,3.54,10.69,9.76,15.83,14.26a4.38,4.38,0,0,0,1.59-1.49c1.24-2.18-.45-4.83-.69-7.33-1.55-.77-3.9-2-6.52-3.39C405.06,231.3,403.12,230.23,401.67,229.41Z"></path><path d="M402.42,241.87c-2.46-1.75-4.68-3.37-6.26-4.55-1.13-.85-1.94-1.47-2.29-1.79-.37.48-.75.95-1.15,1.4a9.54,9.54,0,0,0,1.24,1.53c3.44,3.61,8.84,9.79,12.89,14.2.94-1.56.71-3.83,1.84-5.36a3.71,3.71,0,0,1,.51-.54l-1.63-1.28C406.11,244.47,404.33,243.23,402.42,241.87Z"></path><path d="M392.83,249.91c-.72-1.24-1.4-2.43-2-3.53a11.63,11.63,0,0,0-1.77-2.72,1.9,1.9,0,0,0-1.93-.43c-.47.17-.6.48-.64.44s0-.35.55-.63a2.09,2.09,0,0,1,2.09.22,16.88,16.88,0,0,0-1.47-1.72c-.52.36-1.05.72-1.59,1.05,1.15,5.84,4.16,14.39,7,21.22a3,3,0,0,0,2.32-.53c1.78-1.36,1.05-4.22,1.66-6.36l-.4-.64C395.61,254.66,394.27,252.41,392.83,249.91Z"></path><path d="M384.72,259.9a10.78,10.78,0,0,1,.43,2.43,12.7,12.7,0,0,1-.78-2.33l-1.66-5.69c-.63-2.12-1.2-4.05-1.69-5.68-.23-.81-.41-1.45-.51-1.86l-.3-.7c-.26,5.7.08,13.69.47,20.1a25.74,25.74,0,0,1,4.81-3.22c-.46-2.23-1.07-4.62-1.77-7C384.14,257.47,384.48,258.83,384.72,259.9Z"></path><path d="M372.05,261.92a16.46,16.46,0,0,1-.56,2.88,15.4,15.4,0,0,1,.2-2.93c.19-1.8.49-4.28.85-7l.54-3.86a5.89,5.89,0,0,0-.13-3,2.69,2.69,0,0,0-1.09-1.25l-.6,0c-.33,0-.66,0-1,0a.52.52,0,0,0-.11.1,5.84,5.84,0,0,0-1.19,2.29c-1.74,5.15-3.48,12.83-5.22,18.37,2.06-.43,3.39-2.94,5.52-3.08a3.94,3.94,0,0,1,2.61,1c.17-1.7.32-3.58.48-5.49C372.26,260.63,372.15,261.32,372.05,261.92Z"></path><path d="M359.59,254c.61-1.24,1.21-2.44,1.66-3.53a8,8,0,0,0,.66-3,4.93,4.93,0,0,0-.41-2,1.66,1.66,0,0,0-1,.64c-3.88,4.31-9.35,11.26-13.33,16.63,2.2.83,5.22-.58,7.81-.3.24-.44.67-1.18,1.24-2.17C357.12,258.68,358.35,256.48,359.59,254Z"></path><path d="M346.41,252.13c.7-.83,2.5-2.7,4.57-4.93,2.25-2.41,4.13-4.47,4.78-5.07-.65-.43-1.28-.88-1.9-1.35a30.59,30.59,0,0,1-2.49,2.1,14.37,14.37,0,0,1-3.12,2.1,13.22,13.22,0,0,1,2.8-2.51c.84-.65,1.61-1.21,2.18-1.59a14.63,14.63,0,0,0-3.38,2L338,251.76c2.06.36,4.39.45,5.68,2a3.71,3.71,0,0,1,.49.77C344.82,253.75,345.59,253,346.41,252.13Z"></path><path d="M341.9,240.08c2-1.3,3.87-2.43,5.13-3.27a1.63,1.63,0,0,0,.58-.74,1,1,0,0,0,0-.7c-.13-.39-.4-.46-.38-.5s.33,0,.57.42a1.25,1.25,0,0,1,.09.86.7.7,0,0,1-.06.17,2.4,2.4,0,0,0,.78-.84c-.32-.43-.64-.87-.95-1.32a3.55,3.55,0,0,0-1.2.16c-5.35,1.41-13.52,4.46-19.89,6.82,2,1.46,5.65.83,6.94,3.08a3.48,3.48,0,0,1,.31.87c1.75-1.07,3.7-2.24,5.64-3.41C340.22,241.17,341,240.64,341.9,240.08Z"></path><path d="M335.84,230.26l3.43-.92c1.06-.27,2-.48,2.77-.76a5.41,5.41,0,0,0,2.16-1.42s-.06.27-.37.63a3.65,3.65,0,0,1-.81.68l.43-.15a2.34,2.34,0,0,0,1-.58c-.18-.52-.35-1-.5-1.57a3.54,3.54,0,0,0-1.34-.24q-9.92-.35-19.84-.58c.92,1.56,3,2.25,3.82,3.86a4.61,4.61,0,0,1,.23,3.28l5-1.11C333,231,334.39,230.65,335.84,230.26Z"></path><path d="M325,218.54a13.49,13.49,0,0,1,2.52,0c1.56.06,3.7.14,6.07.19s4.52.06,6.07.07a14,14,0,0,1,2.53.1,10.86,10.86,0,0,1-2.52.27c-1,.06-2.32.09-3.75.1,2.46.1,4.82.13,6.8,0h.16c0-.33,0-.66,0-1s0-.94,0-1.4l-.14-.09c-5.47-3.26-13.33-5.61-19.84-7.39a2.37,2.37,0,0,0,1.53,2.56l-.14-.9c1.61.7,2.05,2.87,1.54,4.55a12,12,0,0,1-1.56,3l1.52.09A2.34,2.34,0,0,1,325,218.54Zm14-1.41a11.35,11.35,0,0,1,3.29.85,11.47,11.47,0,0,1-3.38-.33,11.23,11.23,0,0,1-3.28-.85A11.37,11.37,0,0,1,339,217.13Z"></path><path d="M327.39,203.74a16,16,0,0,1,2.66,1.15l2.07,1c1.84.79,3.76,1.59,5.63,2.33a30.87,30.87,0,0,0,5.32,1.41,2,2,0,0,0,1.08-.18.81.81,0,0,0,.14-.12c.2-.59.41-1.17.65-1.75-.92-.45-2.32-1.21-3.88-2.11a28.63,28.63,0,0,1-4.72-3,31.72,31.72,0,0,1,5,2.56l1.62,1A170.94,170.94,0,0,0,327.17,196c-.32,1.88.4,4.28-.18,6.23a5.52,5.52,0,0,1-.55,1.18l1.2.51C327.48,203.83,327.38,203.75,327.39,203.74Z"></path><path d="M337.05,192.1a12.09,12.09,0,0,1,1.81,1.64c1.09,1,2.61,2.46,4.35,3.94s3.39,2.75,4.6,3.65l.41.31c.35-.48.7-.95,1.08-1.4l-.06-.1c-.53-.63-1.19-1.48-1.89-2.45a17.3,17.3,0,0,1-2.38-3.94,9.49,9.49,0,0,1,1.52,1.86,107.42,107.42,0,0,0-8-10.92,3.69,3.69,0,0,0-2.17,1.17c-1.11,1.35-.7,3.47-1.24,5.07,1,.92,2.19,1.94,3.41,3A9.69,9.69,0,0,1,337.05,192.1Z"></path><path d="M350.69,189c2.5,3.16,4.59,5.68,4.54,5.84q.69-.47,1.41-.9c0-.07-.05-.13-.08-.19-1.88-4.8-5.29-12.32-7.57-17.81a10.56,10.56,0,0,0-1.06.55c-1.67,1-2.22,3.17-3.12,4.94.58.76,1.24,1.65,1.94,2.61S349,186.87,350.69,189Zm2.58-1.45a19.13,19.13,0,0,1,1.62,3.23,18.69,18.69,0,0,1,1.45,3.31,15.56,15.56,0,0,1-3.07-6.54Z"></path><path d="M359.41,177.76a11.78,11.78,0,0,1,.48,2.23c.24,1.37.57,3.28,1,5.37.36,1.83.71,3.47,1,4.78.14.43.28.82.42,1.18.53-.18,1.07-.34,1.63-.49a25.08,25.08,0,0,1-.51-3.31,15.54,15.54,0,0,1-.34-3.38,9.08,9.08,0,0,1,.86,3.32c.09.66.13,1.28.15,1.81,0-5.17.11-11.82.1-17.08-.83.79-1.44,2.17-2.78,4.15a2.76,2.76,0,0,1-2.06,1.14l.06.39C359.39,177.81,359.4,177.76,359.41,177.76Z"></path><path d="M372,183.15c-.05,2.91-.14,5.43-.25,6.72.68,0,1.36,0,2,.11a15.84,15.84,0,0,0,2.2-5.53c.88-3.51,2.09-9.15,3.07-13.27a4.32,4.32,0,0,0-1.77.51c-1.54.85-3.41,4.57-4.38,4.59a1.27,1.27,0,0,1-.9-.48l0,.42C372,177.44,372,180.08,372,183.15Z"></path></g></g></svg>