<svg width="20" height="20" viewBox="0 0 20 20" fill="none" xmlns="http://www.w3.org/2000/svg">
<g clip-path="url(#clip0_617_16949)">
<path d="M18.7616 5.34408C18.6564 4.95546 18.4513 4.60118 18.1666 4.3165C17.882 4.03182 17.5277 3.82668 17.1391 3.7215C15.7164 3.3335 9.9905 3.3335 9.9905 3.3335C9.9905 3.3335 4.26434 3.34524 2.84165 3.73325C2.45303 3.83843 2.09875 4.04358 1.81408 4.32827C1.52941 4.61297 1.32429 4.96727 1.21915 5.35589C0.788814 7.88374 0.621881 11.7356 1.23096 14.1623C1.33612 14.5509 1.54124 14.9052 1.82591 15.1899C2.11058 15.4746 2.46485 15.6797 2.85346 15.7849C4.27616 16.1729 10.0022 16.1729 10.0022 16.1729C10.0022 16.1729 15.7281 16.1729 17.1507 15.7849C17.5394 15.6797 17.8937 15.4746 18.1783 15.1899C18.463 14.9052 18.6681 14.551 18.7733 14.1623C19.2272 11.6309 19.3671 7.78148 18.7616 5.34415V5.34408Z" fill="#FF0000"/>
<path d="M8.16815 12.5045L12.9182 9.75324L8.16815 7.00195V12.5045Z" fill="white"/>
</g>
<defs>
<clipPath id="clip0_617_16949">
<rect width="18.3333" height="12.8906" fill="white" transform="translate(0.833313 3.3335)"/>
</clipPath>
</defs>
</svg>
