<svg width="20" height="20" viewBox="0 0 20 20" fill="none" xmlns="http://www.w3.org/2000/svg">
<g id="zesty-io-logo 1" clip-path="url(#clip0_230_79999)">
<g id="Layer_1">
<g id="Group">
<g id="Group_2">
<path id="Vector" d="M9.42149 17.8627C8.01115 18.2563 6.78749 18.0143 7.12682 16.6533C7.46649 15.292 8.28649 11.3943 8.50615 10.4463C8.52749 10.3547 8.61649 10.2957 8.70915 10.3117L11.0408 10.6027C11.1365 10.6193 11.1988 10.713 11.1768 10.8077L10.3348 14.6443L19.6442 7.64666C18.7308 3.92233 15.6958 0.903996 11.6755 0.206996C7.67949 -0.485671 3.82749 1.309 1.70515 4.47333C3.77182 3.83033 8.83382 2.60433 10.5245 2.163C12.0538 1.764 13.1005 2.091 12.8192 3.32866C12.5082 4.69666 11.6595 8.58766 11.4398 9.53566C11.4185 9.62733 11.3295 9.68633 11.2368 9.67033L8.90515 9.423C8.80949 9.40633 8.74715 9.31266 8.76915 9.218L9.61115 5.38133L0.306152 12.376C1.21882 16.1017 4.25415 19.1217 8.27549 19.8187C12.2705 20.5113 16.1212 18.718 18.2435 15.5557C16.2428 16.19 11.1258 17.387 9.42149 17.8627Z" fill="#475467"/>
</g>
</g>
</g>
</g>
<defs>
<clipPath id="clip0_230_79999">
<rect width="20" height="20" fill="white"/>
</clipPath>
</defs>
</svg>
